<svg width="31" height="26" viewBox="0 0 31 26" fill="none" xmlns="http://www.w3.org/2000/svg">
<path d="M17.3041 18.3899H13.3103V22.3837H17.3041V18.3899Z" fill="#E9F0F3"/>
<path d="M17.3041 9.75232H13.3103V13.7461H17.3041V9.75232Z" fill="#E9F0F3"/>
<path d="M26.6848 9.75232H22.691V13.7461H26.6848V9.75232Z" fill="#E9F0F3"/>
<path d="M26.6848 18.3899H22.691V22.3837H26.6848V18.3899Z" fill="#E9F0F3"/>
<path d="M5.69414 0H3.1864V2.41487H5.69414V0Z" fill="#E9F0F3"/>
<path d="M27.5208 0H25.0131V2.41487H27.5208V0Z" fill="#E9F0F3"/>
<path d="M16.654 0H14.1462V2.41487H16.654V0Z" fill="#E9F0F3"/>
<path d="M0.400024 24.706C0.400024 25.1704 0.771542 25.5419 1.23594 25.5419H12.4743H18.2328H29.4712C29.9356 25.5419 30.3071 25.1704 30.3071 24.706V6.59451H0.400024V24.706ZM21.3907 9.10225C21.3907 8.73073 21.6694 8.4521 22.0409 8.4521H27.335C27.7065 8.4521 27.9852 8.73073 27.9852 9.10225V14.3964C27.9852 14.7679 27.7065 15.0465 27.335 15.0465H22.0409C21.6694 15.0465 21.3907 14.7679 21.3907 14.3964V9.10225ZM21.3907 17.74C21.3907 17.3685 21.6694 17.0899 22.0409 17.0899H27.335C27.7065 17.0899 27.9852 17.3685 27.9852 17.74V23.0341C27.9852 23.4057 27.7065 23.6843 27.335 23.6843H22.0409C21.6694 23.6843 21.3907 23.4057 21.3907 23.0341V17.74ZM12.1028 9.10225C12.1028 8.73073 12.3814 8.4521 12.753 8.4521H18.0471C18.4186 8.4521 18.6972 8.73073 18.6972 9.10225V14.3964C18.6972 14.7679 18.4186 15.0465 18.0471 15.0465H12.753C12.3814 15.0465 12.1028 14.7679 12.1028 14.3964V9.10225ZM12.1028 17.74C12.1028 17.3685 12.3814 17.0899 12.753 17.0899H18.0471C18.4186 17.0899 18.6972 17.3685 18.6972 17.74V23.0341C18.6972 23.4057 18.4186 23.6843 18.0471 23.6843H12.753C12.3814 23.6843 12.1028 23.4057 12.1028 23.0341V17.74ZM2.72201 9.10225C2.72201 8.73073 3.00064 8.4521 3.37216 8.4521H8.66628C9.0378 8.4521 9.31643 8.73073 9.31643 9.10225V14.3964C9.31643 14.7679 9.0378 15.0465 8.66628 15.0465H3.37216C3.00064 15.0465 2.72201 14.7679 2.72201 14.3964V9.10225ZM2.72201 17.74C2.72201 17.3685 3.00064 17.0899 3.37216 17.0899H8.66628C9.0378 17.0899 9.31643 17.3685 9.31643 17.74V23.0341C9.31643 23.4057 9.0378 23.6843 8.66628 23.6843H3.37216C3.00064 23.6843 2.72201 23.4057 2.72201 23.0341V17.74Z" fill="#E9F0F3"/>
<path d="M29.4712 1.95056H28.7282V2.97224C28.7282 3.34376 28.4496 3.62239 28.078 3.62239H24.3629C23.9914 3.62239 23.7127 3.34376 23.7127 2.97224V1.95056H17.8613V2.97224C17.8613 3.34376 17.5827 3.62239 17.2112 3.62239H13.496C13.1245 3.62239 12.8458 3.34376 12.8458 2.97224V1.95056H6.99445V2.97224C6.99445 3.34376 6.71581 3.62239 6.3443 3.62239H2.62913C2.25761 3.62239 1.97897 3.34376 1.97897 2.97224V1.95056H1.23594C0.771542 1.95056 0.400024 2.32207 0.400024 2.78647V5.20134H30.4V2.78647C30.3071 2.32207 29.9356 1.95056 29.4712 1.95056Z" fill="#E9F0F3"/>
<path d="M8.01615 18.3899H4.02234V22.3837H8.01615V18.3899Z" fill="#E9F0F3"/>
<path d="M8.01615 9.75232H4.02234V13.7461H8.01615V9.75232Z" fill="#E9F0F3"/>
</svg>
