<svg width="24" height="24" viewBox="0 0 24 24" fill="none" xmlns="http://www.w3.org/2000/svg">
<rect x="0.5" y="0.5" width="23" height="23" rx="11.5" stroke="black"/>
<path d="M13.364 10.8113H17.0809C17.6279 10.8113 18.0714 11.2548 18.0714 11.8019C18.0714 12.349 17.6279 12.7925 17.0809 12.7925H13.364V16.9217C13.364 17.5172 12.8812 18 12.2857 18C11.6902 18 11.2074 17.5172 11.2074 16.9217V12.7925H7.49057C6.94349 12.7925 6.5 12.349 6.5 11.8019C6.5 11.2548 6.94349 10.8113 7.49057 10.8113H11.2074V7.0783C11.2074 6.48277 11.6902 6 12.2857 6C12.8812 6 13.364 6.48277 13.364 7.0783V10.8113Z" fill="black"/>
</svg>