<svg width="30" height="30" viewBox="0 0 30 30" fill="none" xmlns="http://www.w3.org/2000/svg">
<path fill-rule="evenodd" clip-rule="evenodd" d="M29.0854 21.311H18.2927C17.7439 21.311 17.3781 21.6769 17.3781 22.2257V28.6281C17.3781 29.1769 17.7439 29.5427 18.2927 29.5427H29.0854C29.6341 29.5427 30 29.1769 30 28.6281V22.2257C30 21.6769 29.6341 21.311 29.0854 21.311Z" fill="#E9F0F3"/>
<path fill-rule="evenodd" clip-rule="evenodd" d="M11.5244 13.4451H1.00606C0.457284 13.4451 0.0914307 13.8109 0.0914307 14.3597V28.4451C0.0914307 28.9938 0.457284 29.3597 1.00606 29.3597H11.5244C12.0731 29.3597 12.439 28.9938 12.439 28.4451V14.3597C12.439 13.9024 12.0731 13.4451 11.5244 13.4451Z" fill="#E9F0F3"/>
<path fill-rule="evenodd" clip-rule="evenodd" d="M0.914634 8.23171H11.7073C12.2561 8.23171 12.6219 7.86585 12.6219 7.31707V0.914634C12.6219 0.365854 12.2561 0 11.7073 0H0.914634C0.365854 0 0 0.365854 0 0.914634V7.31707C0 7.86585 0.365854 8.23171 0.914634 8.23171Z" fill="#E9F0F3"/>
<path fill-rule="evenodd" clip-rule="evenodd" d="M28.9024 0.182861H18.3841C17.8353 0.182861 17.4695 0.548715 17.4695 1.0975V15.1829C17.4695 15.7316 17.8353 16.0975 18.3841 16.0975H28.9024C29.4512 16.0975 29.817 15.7316 29.817 15.1829V1.0975C29.817 0.640178 29.4512 0.182861 28.9024 0.182861Z" fill="#E9F0F3"/>
</svg>
