<svg width="24" height="30" viewBox="0 0 24 30" fill="none" xmlns="http://www.w3.org/2000/svg">
<path d="M22.9945 25.3037L21.0123 21.7262C20.0985 20.075 19.615 18.185 19.615 16.2587V13.125C19.615 8.30125 15.991 4.375 11.5385 4.375C7.08599 4.375 3.46191 8.30125 3.46191 13.125V16.2587C3.46191 18.185 2.97845 20.075 2.06465 21.7262L0.0824051 25.3037C-0.024898 25.4962 -0.0272235 25.7375 0.0743466 25.9325C0.177053 26.1287 0.3697 26.25 0.577384 26.25H22.4995C22.7072 26.25 22.8999 26.1288 23.0025 25.9325C23.1041 25.7375 23.1018 25.4962 22.9945 25.3037ZM1.59622 25L3.05347 22.3687C4.07571 20.5237 4.61569 18.4112 4.61569 16.2587V13.125C4.61569 8.98873 7.72056 5.62498 11.5385 5.62498C15.3564 5.62498 18.4612 8.98873 18.4612 13.125V16.2587C18.4612 18.4112 19.0012 20.5237 20.0223 22.3687L21.4807 25H1.59622Z" fill="black"/>
<path d="M11.5383 0C10.2657 0 9.23071 1.12125 9.23071 2.50002V5.00004C9.23071 5.34498 9.48918 5.625 9.80763 5.625C10.1261 5.625 10.3845 5.34498 10.3845 4.99998V2.50002C10.3845 1.81002 10.9014 1.25004 11.5383 1.25004C12.1752 1.25004 12.6921 1.81002 12.6921 2.50002V5.00004C12.6921 5.34498 12.9506 5.625 13.269 5.625C13.5875 5.625 13.8459 5.34498 13.8459 4.99998V2.50002C13.8459 1.12125 12.811 0 11.5383 0Z" fill="black"/>
<path d="M14.0351 25.3087C13.8724 25.0112 13.5205 24.9137 13.2448 25.085C12.969 25.26 12.8768 25.6437 13.0382 25.9412C13.1882 26.2175 13.2702 26.5487 13.2702 26.8749C13.2702 27.9087 12.4937 28.7499 11.5395 28.7499C10.5853 28.7499 9.80878 27.9087 9.80878 26.8749C9.80878 26.5487 9.89071 26.2175 10.0407 25.9412C10.201 25.6424 10.1088 25.2599 9.83414 25.085C9.55609 24.9137 9.2053 25.0112 9.04381 25.3087C8.7888 25.7812 8.65381 26.3225 8.65381 26.875C8.65386 28.5987 9.94723 30 11.5383 30C13.1294 30 14.4228 28.5987 14.4251 26.875C14.4251 26.3225 14.2901 25.7812 14.0351 25.3087Z" fill="black"/>
</svg>
