<svg width="31" height="20" viewBox="0 0 31 20" fill="none" xmlns="http://www.w3.org/2000/svg">
<path fill-rule="evenodd" clip-rule="evenodd" d="M2.45603 19.0656H28.3439C29.4654 19.0656 30.4 18.131 30.4 17.0095V5.32727H0.493408V17.0095C0.493408 18.131 1.33453 19.0656 2.45603 19.0656ZM22.2691 12.8973C22.2691 11.7758 23.2037 10.8413 24.3252 10.8413H25.7271C26.8486 10.8413 27.7831 11.7758 27.7831 12.8973V14.2992C27.7831 15.4207 26.8486 16.3553 25.7271 16.3553H24.3252C23.2037 16.3553 22.2691 15.4207 22.2691 14.2992V12.8973ZM3.85789 12.2432H12.0822C12.456 12.2432 12.7364 12.5235 12.7364 12.8973C12.7364 13.2712 12.456 13.5516 12.0822 13.5516H3.85789C3.48406 13.5516 3.20369 13.2712 3.20369 12.8973C3.20369 12.5235 3.48406 12.2432 3.85789 12.2432ZM3.85789 14.9534H12.0822C12.456 14.9534 12.7364 15.2338 12.7364 15.6076C12.7364 15.9815 12.456 16.2618 12.0822 16.2618H3.85789C3.48406 16.2618 3.20369 15.9815 3.20369 15.6076C3.20369 15.2338 3.48406 14.9534 3.85789 14.9534Z" fill="#E9F0F3"/>
<path fill-rule="evenodd" clip-rule="evenodd" d="M24.3252 14.9534H25.7271C26.1009 14.9534 26.3813 14.673 26.3813 14.2991V12.8973C26.3813 12.5234 26.1009 12.2431 25.7271 12.2431H24.3252C23.9514 12.2431 23.671 12.5234 23.671 12.8973V14.2991C23.671 14.673 23.9514 14.9534 24.3252 14.9534Z" fill="#E9F0F3"/>
<path fill-rule="evenodd" clip-rule="evenodd" d="M28.4374 0H2.4561C1.3346 0 0.400024 0.934591 0.400024 2.05609V2.71027H30.4V2.05609C30.4 0.841133 29.5589 0 28.4374 0Z" fill="#E9F0F3"/>
</svg>
