<svg width="34" height="34" viewBox="0 0 34 34" fill="none" xmlns="http://www.w3.org/2000/svg">
<rect x="1" y="1" width="32" height="32" rx="16" fill="#D3D9DD" stroke="white" stroke-width="2"/>
<path fill-rule="evenodd" clip-rule="evenodd" d="M12.1348 13.3731C12.1348 15.8509 14.1431 17.8663 16.6123 17.8663C19.0814 17.8663 21.0898 15.8509 21.0898 13.3731C21.0898 10.8953 19.0814 8.87988 16.6123 8.87988C14.1431 8.87988 12.1348 10.8953 12.1348 13.3731ZM12.9487 13.373C12.9487 11.3462 14.5923 9.69678 16.6121 9.69678C18.6319 9.69678 20.2755 11.3462 20.2755 13.373C20.2755 15.3999 18.6319 17.0493 16.6121 17.0493C14.5923 17.0493 12.9487 15.3999 12.9487 13.373Z" fill="white"/>
<path d="M8.34137 25.4027C8.21761 25.5994 7.95844 25.6581 7.7625 25.5339C7.56655 25.4097 7.50803 25.1496 7.63179 24.953C9.94314 21.2805 12.9635 19.4229 16.6589 19.4229C20.3542 19.4229 23.3746 21.2805 25.6859 24.953C25.8097 25.1496 25.7512 25.4097 25.5552 25.5339C25.3593 25.6581 25.1001 25.5994 24.9764 25.4027C22.8117 21.9633 20.0505 20.2651 16.6589 20.2651C13.2672 20.2651 10.506 21.9633 8.34137 25.4027Z" fill="white"/>
</svg>
