<svg width="14" height="14" viewBox="0 0 14 14" fill="none" xmlns="http://www.w3.org/2000/svg">
<path d="M8.27495 5.61321H12.7943C13.4326 5.61321 13.95 6.13061 13.95 6.76887C13.95 7.40712 13.4326 7.92453 12.7943 7.92453H8.27495V12.7001C8.27495 13.418 7.69294 14 6.975 14C6.25706 14 5.67505 13.418 5.67505 12.7001V7.92453H1.15566C0.517407 7.92453 0 7.40712 0 6.76887C0 6.13061 0.517407 5.61321 1.15566 5.61321H5.67505V1.29995C5.67505 0.582008 6.25706 0 6.975 0C7.69294 0 8.27495 0.582007 8.27495 1.29995V5.61321Z" fill="#404AC1"/>
</svg>
