<svg width="34" height="34" viewBox="0 0 34 34" fill="none" xmlns="http://www.w3.org/2000/svg">
<path d="M17 34C26.3888 34 34 26.3888 34 17C34 7.61116 26.3888 0 17 0C7.61116 0 0 7.61116 0 17C0 26.3888 7.61116 34 17 34Z" fill="#01B6F5"/>
<path fill-rule="evenodd" clip-rule="evenodd" d="M11.6263 13.0865C11.6263 16.2125 14.1689 18.755 17.2949 18.755C20.4208 18.755 22.9634 16.2125 22.9634 13.0865C22.9634 9.96057 20.4208 7.41797 17.2949 7.41797C14.1689 7.41797 11.6263 9.96057 11.6263 13.0865ZM12.6581 13.0864C12.6581 10.5294 14.739 8.44849 17.296 8.44849C19.853 8.44849 21.9339 10.5294 21.9339 13.0864C21.9339 15.6434 19.853 17.7243 17.296 17.7243C14.739 17.7243 12.6581 15.6434 12.6581 13.0864Z" fill="white"/>
<path d="M6.8239 28.263C6.66722 28.511 6.33912 28.5851 6.09105 28.4285C5.84298 28.2718 5.76889 27.9437 5.92557 27.6956C8.85175 23.0625 12.6755 20.7189 17.3539 20.7189C22.0323 20.7189 25.856 23.0625 28.7822 27.6956C28.9389 27.9437 28.8648 28.2718 28.6167 28.4285C28.3687 28.5851 28.0406 28.511 27.8839 28.263C25.1434 23.9239 21.6478 21.7814 17.3539 21.7814C13.06 21.7814 9.56438 23.9239 6.8239 28.263Z" fill="white"/>
</svg>
