<svg width="30" height="30" viewBox="0 0 30 30" fill="none" xmlns="http://www.w3.org/2000/svg">
<path fill-rule="evenodd" clip-rule="evenodd" d="M25.8278 9.09948V0.551489C25.8278 0.367661 25.7358 0.275746 25.6439 0.183832C25.552 0.0919181 25.3682 0 25.2763 0H11.8568V6.98547C11.8568 7.44503 11.673 7.81269 11.3973 8.08843C11.1215 8.36417 10.662 8.548 10.2943 8.548H3.30884V27.2984C3.30884 27.4823 3.40075 27.5742 3.49267 27.6661C3.58458 27.758 3.76841 27.8499 3.86032 27.8499H16.3606L16.4525 25.7359C16.4525 25.644 16.4525 25.5521 16.5444 25.4602L25.9197 9.28331C25.8277 9.1914 25.8278 9.19139 25.8278 9.09948Z" fill="#F8D538"/>
<path fill-rule="evenodd" clip-rule="evenodd" d="M25.1844 12.5004L18.0151 25.0926L19.3019 24.9088L26.1036 13.0519L25.1844 12.5004Z" fill="#F8D538"/>
<path fill-rule="evenodd" clip-rule="evenodd" d="M17.2799 29.5043L18.5667 28.677C18.199 28.3094 17.8314 28.1256 17.3718 27.9417L17.2799 29.5043Z" fill="#F8D538"/>
<path fill-rule="evenodd" clip-rule="evenodd" d="M0.551483 2.11407C0.367655 2.11407 0.275742 2.20599 0.183828 2.2979C0.0919138 2.38981 0 2.57364 0 2.66556V25.1845C0 25.3683 0.0919138 25.4602 0.183828 25.5521C0.275742 25.644 0.459569 25.736 0.551483 25.736H2.11402V7.99657C2.11402 7.81274 2.20593 7.72083 2.29785 7.62891L7.81269 2.11407H0.551483Z" fill="#F8D538"/>
<path fill-rule="evenodd" clip-rule="evenodd" d="M10.2024 7.44507C10.3863 7.44507 10.4782 7.35315 10.5701 7.26124C10.662 7.16933 10.7539 6.9855 10.7539 6.89358V0.735352L4.04419 7.44507H10.2024Z" fill="#F8D538"/>
<path fill-rule="evenodd" clip-rule="evenodd" d="M17.4636 26.1955V26.8389C18.2908 27.0227 18.9342 27.3904 19.4857 28.0338L20.0372 27.6661L19.3019 26.0117L17.4636 26.1955Z" fill="#F8D538"/>
<path fill-rule="evenodd" clip-rule="evenodd" d="M25.2763 27.8498C25.4601 27.8498 25.552 27.7579 25.6439 27.666C25.7358 27.5741 25.8278 27.3903 25.8278 27.2983V20.1291L21.324 27.8498H25.2763Z" fill="#F8D538"/>
<path fill-rule="evenodd" clip-rule="evenodd" d="M28.9529 8.54809C28.6771 8.45618 28.3095 8.45618 28.0337 8.54809C27.8499 8.64001 27.6661 8.73192 27.4823 8.82384C27.2984 8.91575 27.2065 9.09958 27.0227 9.28341L26.7469 9.74298L29.5044 11.3055L29.7801 10.8459C29.9639 10.5702 30.0559 10.2945 29.9639 9.9268C29.9639 9.65106 29.872 9.2834 29.5963 9.00766C29.5963 8.82383 29.3205 8.64001 28.9529 8.54809Z" fill="#F8D538"/>
<path d="M26.3097 10.7049L25.7585 11.6602L28.5451 13.2678L29.0963 12.3124L26.3097 10.7049Z" fill="#F8D538"/>
<path fill-rule="evenodd" clip-rule="evenodd" d="M20.2211 25.4602L20.7726 26.6551L28.0338 14.1548L27.0227 13.6033L20.2211 25.4602Z" fill="#F8D538"/>
</svg>
