<svg width="31" height="29" viewBox="0 0 31 29" fill="none" xmlns="http://www.w3.org/2000/svg">
<path fill-rule="evenodd" clip-rule="evenodd" d="M22.2944 15.3L18.9404 16H18.8472C18.6609 16 18.4746 15.9 18.3814 15.8C18.1951 15.6 18.1951 15.4 18.1951 15.1L18.8472 11.6H6.54909C6.17642 11.6 5.89692 11.3 5.89692 10.9C5.89692 10.5 6.17642 10.2 6.54909 10.2H19.8721L27.2323 2.29999C27.3255 2.19999 27.5118 2.1 27.605 2V1.5C27.605 0.7 26.9528 0 26.2075 0H1.79754C1.0522 0 0.400024 0.7 0.400024 1.5V28.2L5.99009 22.2C6.08326 22.1 6.26959 22 6.45593 22H26.1143C26.8597 22 27.5118 21.3 27.5118 20.5V9.89999L22.5739 15.2C22.5739 15.2 22.4808 15.2 22.2944 15.3ZM6.54909 5.79999H21.4559C21.8286 5.79999 22.1081 6.1 22.1081 6.5C22.1081 6.9 21.8286 7.20001 21.4559 7.20001H6.54909C6.17642 7.20001 5.89692 6.9 5.89692 6.5C5.89692 6.1 6.17642 5.79999 6.54909 5.79999ZM14.7479 16H6.54909C6.17642 16 5.89692 15.7 5.89692 15.3C5.89692 14.9 6.17642 14.6 6.54909 14.6H14.7479C15.1205 14.6 15.4 14.9 15.4 15.3C15.4 15.7 15.1205 16 14.7479 16Z" fill="#E9F0F3"/>
<path fill-rule="evenodd" clip-rule="evenodd" d="M29.0958 2.8999C28.7231 2.8999 28.4436 2.9999 28.2573 3.2999L27.2324 4.3999L29.0026 6.2999L30.0275 5.19992C30.2138 4.99992 30.4001 4.5999 30.4001 4.2999C30.307 3.4999 29.748 2.8999 29.0958 2.8999Z" fill="#E9F0F3"/>
<path fill-rule="evenodd" clip-rule="evenodd" d="M20.0583 11.9999L19.6857 14.2999L21.8285 13.8999L28.0708 7.2999L26.3006 5.3999L20.0583 11.9999Z" fill="#E9F0F3"/>
</svg>
