<svg width="47" height="47" viewBox="0 0 47 47" fill="none" xmlns="http://www.w3.org/2000/svg">
<circle cx="23.5" cy="23.5" r="23.5" fill="#404AC1"/>
<path d="M27.0154 18.8855C27.4153 19.564 28.4229 20.1646 29.3618 20.1646C32.103 20.1646 33.5157 16.3222 33.4968 14.0444C33.4625 10.3353 30.8071 7.56769 25.9855 7.56769C19.5659 7.56769 15.1134 10.5949 15.1632 16.3516C15.2044 21.12 18.3455 22.8785 21.7647 25.0317C25.6851 27.4998 27.0755 28.6941 27.0944 30.9892C27.1235 34.4439 25.0861 36.3374 22.3947 36.3374C20.2268 36.3374 18.8656 35.2331 18.3146 33.6771C17.7928 32.2042 18.0657 30.1324 18.2271 28.1229C18.4279 25.6253 15.7073 25.2948 13.4501 25.6911C13.4484 26.56 13.1291 29.1199 13.1446 30.9372C13.1909 36.1955 16.399 39.4321 22.2676 39.4321C28.713 39.4321 32.2781 35.0047 32.2369 30.1687C32.1992 25.7413 28.7284 23.6228 25.692 21.6791C22.6556 19.7354 20.2044 18.2884 20.1838 15.8912C20.1581 12.9021 23.0126 11.3045 25.8654 11.3045C28.0985 11.3045 29.2451 12.6217 29.2571 14.0981C29.276 16.1439 28.289 18.0668 27.0154 18.8855Z" fill="white"/>
</svg>
