<svg width="52" height="43" viewBox="0 0 52 43" fill="none" xmlns="http://www.w3.org/2000/svg">
<path d="M19.3623 4.2092C19.827 4.2092 20.2042 3.85385 20.2042 3.41601V0.793191C20.2042 0.35535 19.827 0 19.3623 0C18.8976 0 18.5205 0.35535 18.5205 0.793191V3.41601C18.5205 3.85385 18.8976 4.2092 19.3623 4.2092Z" fill="#404AC1"/>
<path d="M10.4958 5.54655C10.6239 5.76904 10.8562 5.89275 11.0949 5.89275C11.212 5.89275 11.3309 5.86321 11.4397 5.79951C11.7706 5.60841 11.8839 5.18466 11.6931 4.85415L10.5502 2.87205C10.3594 2.54062 9.93634 2.42707 9.60636 2.61817C9.27546 2.80927 9.16209 3.23302 9.35289 3.56445L10.4958 5.54655Z" fill="#404AC1"/>
<path d="M2.87219 10.55L4.85454 11.6936C4.96349 11.7563 5.0826 11.7858 5.19986 11.7858C5.439 11.7858 5.67168 11.6622 5.80002 11.4399C5.99114 11.1089 5.87758 10.6865 5.54703 10.4947L3.56467 9.35294C3.2332 9.16203 2.8094 9.27547 2.61827 9.60655C2.42715 9.93671 2.54071 10.3591 2.87219 10.55Z" fill="#404AC1"/>
<path d="M4.2092 19.3623C4.2092 18.8977 3.85385 18.5205 3.41601 18.5205H0.793191C0.35535 18.5205 0 18.8977 0 19.3623C0 19.827 0.35535 20.2042 0.793191 20.2042H3.41601C3.85385 20.2042 4.2092 19.827 4.2092 19.3623Z" fill="#404AC1"/>
<path d="M33.5255 11.7858C33.6428 11.7858 33.7618 11.7563 33.8708 11.6936L35.8526 10.5504C36.184 10.3596 36.2975 9.93646 36.1064 9.60642C35.9154 9.27546 35.4917 9.16207 35.1603 9.3529L33.1785 10.4951C32.8471 10.686 32.7335 11.1091 32.9246 11.4401C33.0529 11.6613 33.2855 11.7858 33.5255 11.7858Z" fill="#404AC1"/>
<path d="M5.80002 27.2846C5.60889 26.9537 5.18509 26.8403 4.85454 27.0311L2.87219 28.1733C2.54071 28.3642 2.42715 28.7873 2.61827 29.1183C2.74661 29.3405 2.97929 29.464 3.21843 29.464C3.33569 29.464 3.4548 29.4345 3.56467 29.3718L5.54703 28.2287C5.87758 28.0378 5.99114 27.6156 5.80002 27.2846Z" fill="#404AC1"/>
<path d="M27.2847 5.79951C27.3935 5.86229 27.5124 5.89275 27.6295 5.89275C27.8682 5.89275 28.1005 5.76904 28.2287 5.54655L29.3717 3.56445C29.5625 3.23302 29.4492 2.80927 29.1182 2.61817C28.7873 2.42707 28.3651 2.54062 28.1733 2.87205L27.0321 4.85415C26.8404 5.18466 26.9538 5.60841 27.2847 5.79951Z" fill="#404AC1"/>
<path d="M45.4625 29.8497C45.0616 29.8362 44.7373 29.5193 44.7134 29.1182C44.3249 22.6837 38.981 17.6445 32.5472 17.6445C30.1995 17.6445 27.9213 18.3147 25.957 19.5833C24.2682 20.6743 22.881 22.1569 21.906 23.9024C24.7375 24.7316 27.1287 26.7898 28.3316 29.5608C29.2982 29.646 30.2441 29.9307 31.0937 30.3962C31.4697 30.603 31.6086 31.0767 31.4024 31.4539C31.1962 31.8311 30.7248 31.9703 30.3477 31.7635C29.5665 31.3355 28.6817 31.1038 27.7876 31.0923C27.4675 31.0882 27.1816 30.8876 27.0697 30.5863C25.8337 27.2792 22.6365 25.0578 19.1139 25.0578C14.631 25.0578 10.9085 28.5696 10.637 33.0519C10.6132 33.4529 10.2889 33.7698 9.88797 33.7833C7.64494 33.8602 5.88885 35.6847 5.88885 37.9352C5.88885 40.2262 7.74751 42.0912 10.033 42.0912H27.7193C30.7435 42.0912 33.2051 39.6236 33.2051 36.5897C33.2051 35.6244 32.9502 34.6727 32.4685 33.8394C32.254 33.4675 32.3804 32.9906 32.7513 32.7745C33.1233 32.5584 33.5988 32.6851 33.8133 33.0581C34.4318 34.1283 34.7592 35.3491 34.7592 36.5897C34.7592 38.8121 33.7293 40.7956 32.1245 42.0912H36.6075H39.9912H45.246C48.6131 42.0912 51.3534 39.343 51.3534 35.9663C51.3555 32.6508 48.7675 29.9629 45.4625 29.8497ZM40.1445 23.6437C39.9943 23.7892 39.8005 23.8609 39.6068 23.8609C39.4027 23.8609 39.1986 23.7809 39.0463 23.6219C37.3275 21.8265 35.0202 20.8384 32.5472 20.8384C32.1183 20.8384 31.7702 20.4893 31.7702 20.0592C31.7702 19.629 32.1183 19.2799 32.5472 19.2799C35.4471 19.2799 38.1532 20.4384 40.1673 22.5434C40.4646 22.853 40.4543 23.3466 40.1445 23.6437ZM42.2383 28.3244C42.1772 28.339 42.1161 28.3462 42.056 28.3462C41.7048 28.3462 41.3867 28.1062 41.3007 27.7488C41.1816 27.2501 41.0179 26.7597 40.8148 26.289C40.6449 25.8942 40.8252 25.436 41.2189 25.2646C41.6126 25.0931 42.0705 25.275 42.2404 25.6698C42.4787 26.2225 42.6704 26.7992 42.8113 27.3841C42.9128 27.8028 42.6559 28.2236 42.2383 28.3244Z" fill="#404AC1"/>
<path d="M19.116 23.499C19.5211 23.499 19.9231 23.525 20.3188 23.5738C21.4243 21.4179 23.0747 19.5903 25.1157 18.2718C26.6086 17.3076 28.2622 16.6509 29.9913 16.3247C29.5841 14.9438 28.9055 13.6347 28.0042 12.5063C28.0042 12.5063 26.5102 10.8533 25.6969 10.3317C23.8155 9.00595 21.6015 8.30566 19.2952 8.30566C13.1474 8.30566 8.14536 13.322 8.14536 19.4874C8.14536 22.4288 9.25703 25.1707 11.2856 27.2664C13.1349 24.965 15.9664 23.499 19.116 23.499Z" fill="#404AC1"/>
<path d="M8.14594 19.4874C8.14594 13.322 13.1479 8.30566 19.2958 8.30566C21.6031 8.30566 23.8161 9.00699 25.6975 10.3317C26.5108 10.8533 28.0048 12.5063 28.0048 12.5063C28.9061 13.6347 29.5847 14.9438 29.9919 16.3247C28.2627 16.6509 26.6092 17.3076 25.1163 18.2718C23.0753 19.5892 21.4249 21.4168 20.3194 23.5738C19.9236 23.525 19.5217 23.499 19.1166 23.499C15.967 23.499 13.1355 24.965 11.2872 27.2664C9.25761 25.1707 8.14594 22.4288 8.14594 19.4874ZM45.2476 42.0919H39.9928H36.6091H32.1261C33.731 40.7973 34.7608 38.8128 34.7608 36.5904C34.7608 35.3509 34.4334 34.13 33.8149 33.0588C33.6004 32.6858 33.1249 32.5591 32.7529 32.7752C32.382 32.9903 32.2556 33.4672 32.4701 33.8402C32.9519 34.6734 33.2067 35.6252 33.2067 36.5904C33.2067 39.6243 30.7461 42.0919 27.7209 42.0919H10.0357C7.75017 42.0919 5.89151 40.2269 5.89151 37.9359C5.89151 35.6844 7.6476 33.8609 9.89063 33.7841C10.2905 33.7706 10.6148 33.4537 10.6397 33.0526C10.9101 28.5704 14.6336 25.0585 19.1166 25.0585C22.6391 25.0585 25.8363 27.2799 27.0723 30.5871C27.1853 30.8884 27.4702 31.0889 27.7903 31.093C28.6844 31.1045 29.5692 31.3362 30.3504 31.7642C30.7275 31.971 31.1989 31.8318 31.4051 31.4546C31.6112 31.0775 31.4724 30.6037 31.0963 30.3969C30.2468 29.9314 29.3009 29.6457 28.3342 29.5616C27.1314 26.7916 24.7402 24.7323 21.9087 23.9032C22.8836 22.1576 24.2709 20.6739 25.9596 19.584C27.9229 18.3154 30.2022 17.6452 32.5499 17.6452C38.9837 17.6452 44.3276 22.6854 44.7161 29.1189C44.7399 29.52 45.0642 29.8369 45.4652 29.8504C48.7691 29.9636 51.3582 32.6515 51.3582 35.9691C51.3551 39.3448 48.6158 42.0919 45.2476 42.0919Z" fill="#404AC1"/>
<path d="M42.2425 25.67C42.0726 25.2751 41.6147 25.0933 41.221 25.2648C40.8273 25.4362 40.646 25.8944 40.8169 26.2892C41.02 26.7599 41.1837 27.2503 41.3028 27.749C41.3888 28.1064 41.7069 28.3464 42.0581 28.3464C42.1182 28.3464 42.1793 28.3392 42.2405 28.3246C42.658 28.2238 42.9149 27.803 42.8144 27.3843C42.6725 26.7994 42.4808 26.2227 42.2425 25.67Z" fill="#404AC1"/>
</svg>
