<svg width="259" height="150" viewBox="0 0 259 150" fill="none" xmlns="http://www.w3.org/2000/svg">
<path d="M15.0418 54.2729C15.7431 36.6627 26.7506 18.7983 43.6884 13.9191C58.428 9.67539 74.0083 15.5386 88.0671 21.6684C102.126 27.7981 117.124 34.4568 132.228 31.7794C145.869 29.3603 156.909 19.7823 168.335 11.9551C179.761 4.12787 194.062 -2.3996 207.124 2.20489C214.51 4.80849 220.367 10.7168 224.402 17.4288C234.06 33.5055 233.728 55.0519 223.582 70.8212C213.436 86.5904 193.959 95.8281 175.319 93.7042C167.913 92.8595 160.498 90.3789 153.157 91.6828C142.727 93.532 135.263 102.364 126.963 108.94C113.097 119.929 94.8914 125.292 77.2811 123.57C50.8204 120.987 28.8217 103.741 19.4465 79.2019C16.4198 71.2681 14.7055 62.7889 15.0418 54.2729Z" fill="#E9F0F3"/>
<path d="M162.868 9.61416C163.963 8.3349 165.005 6.93675 165.403 5.30078C165.796 3.66482 165.395 1.73364 164.037 0.737297C162.753 -0.20164 160.99 -0.103236 159.444 0.261678C153.993 1.54093 144.995 8.43741 147.251 15.1084C150.081 23.4645 160.227 12.7016 162.868 9.61416Z" fill="#E9F0F3"/>
<path d="M243.001 148.999C236.39 146.465 230.496 142.07 226.211 136.432C223.984 133.505 221.47 129.864 217.791 130.044C213.493 130.257 211.282 135.559 207.259 137.092C201.161 139.417 194.894 132.164 188.492 133.418C181.676 134.755 179.244 144.686 172.408 145.924C169.865 146.387 167.256 145.477 164.677 145.678C162.667 145.834 160.498 147.228 160.026 148.999H243.001Z" fill="#E9F0F3"/>
<path d="M112.855 148.999C106.243 146.465 100.35 142.07 96.0644 136.432C93.8374 133.505 91.3234 129.864 87.6447 130.044C83.3467 130.257 81.1361 135.559 77.1129 137.092C71.0145 139.417 64.7479 132.164 58.346 133.418C51.5299 134.755 49.0979 144.686 42.2612 145.924C39.7185 146.387 37.1102 145.477 34.5305 145.678C32.521 145.834 30.3515 147.228 29.8798 148.999H112.855Z" fill="#E9F0F3"/>
<path d="M38.8682 116.966C38.6238 116.934 41.3892 116.609 42.7332 116.451C42.7454 115.972 42.725 115.497 42.6721 115.022L37.5201 114.71L42.2363 113.002C42.0082 112.312 41.7068 111.646 41.3199 111.026C40.4728 109.65 39.2632 108.425 38.9211 106.846C38.5301 105.045 39.3691 103.214 40.2895 101.62C41.214 100.021 42.277 98.398 42.3951 96.5598C42.4684 95.4602 42.1833 94.393 41.7313 93.3827C40.5909 93.3624 39.2021 93.3583 38.4568 93.4273C38.1269 93.5612 37.9192 93.6261 37.9274 93.5571C37.9355 93.4963 38.1351 93.4557 38.4568 93.4273C39.084 93.1716 40.1551 92.6401 41.0878 92.1653C40.9045 91.857 40.709 91.5567 40.5095 91.2645C39.418 89.6942 38.1228 88.2456 37.3165 86.5129C36.506 84.7722 36.2209 82.8042 35.2638 81.1365C34.3108 79.4688 32.2867 78.1175 30.5028 78.8398C28.8248 79.5215 28.2547 81.6153 28.2628 83.421C28.2628 83.701 28.275 83.9809 28.2872 84.265L30.7757 85.4985L28.3402 85.4458C28.3809 86.5982 28.3443 87.7343 27.8841 88.7771C27.041 90.6883 24.9598 91.8123 24.0231 93.6789C22.8583 96.008 23.7665 98.8119 24.9313 101.141C25.302 101.884 25.7011 102.63 26.0758 103.389L30.1403 104.221L26.7274 104.834C27.1917 105.994 27.5094 107.183 27.4686 108.429C27.3505 111.898 24.5078 114.775 24.1453 118.228C24.1372 118.321 24.1372 118.407 24.129 118.5L28.9226 118.273L24.1779 120.257C25.2124 127.569 36.8033 127.5 40.8149 122.14C41.8168 120.805 42.4236 119.206 42.6436 117.554C41.381 117.356 39.1003 116.994 38.8682 116.966Z" stroke="#121B46" stroke-width="0.5" stroke-miterlimit="10"/>
<path d="M34.0746 135.266C34.0705 135.266 34.0623 135.266 34.0583 135.266C33.8343 135.258 33.6592 135.068 33.6673 134.844C34.2701 119.421 31.7572 81.2015 31.7328 80.816C31.7165 80.5928 31.8875 80.3981 32.1115 80.3859C32.3355 80.3737 32.531 80.5401 32.5432 80.7632C32.5677 81.1487 35.0846 119.409 34.4778 134.873C34.4737 135.096 34.2945 135.266 34.0746 135.266Z" fill="#3697C2"/>
<path d="M29.0774 109.293C29.9082 107.938 30.7635 106.599 31.5658 105.223C30.7472 104.485 29.7494 103.876 28.7882 103.377C27.3057 102.606 25.5137 102.208 24.4182 100.926C22.4266 98.605 22.9968 95.3751 21.3596 92.843C20.6346 91.7231 19.3477 91.1794 18.1299 90.7249C17.6575 91.5567 17.2217 92.3886 16.733 93.2042C16.8755 92.2993 16.9895 91.3904 17.1117 90.4855C16.676 90.4084 16.2157 90.3313 15.7759 90.2907C13.6499 90.0879 11.4181 90.2339 9.35322 89.743C7.63046 89.3331 6.20094 88.2822 4.54334 87.8034C2.88982 87.3246 1.02452 87.4422 0.238486 89.1221C-0.417221 90.5261 0.389176 92.0477 1.3259 93.0581C2.26262 94.0685 3.57811 94.527 4.55963 95.4278C5.54116 96.3286 6.05839 97.3471 6.51453 98.5725C7.80966 98.2885 9.09663 97.9801 10.3918 97.7001C9.23511 98.4508 8.07846 99.169 6.89737 99.8994C7.5042 101.766 7.83817 103.547 9.41431 104.886C11.1126 106.331 13.4341 106.298 15.3401 107.528C17.6005 108.989 18.6064 111.322 19.2947 113.886C19.3517 114.093 19.3925 114.312 19.4413 114.519C20.2192 114.353 20.9971 114.178 21.7791 114.028C21.0663 114.515 20.3577 115.002 19.6368 115.485C20.0644 117.555 20.4432 119.551 21.437 121.434C21.9012 122.314 22.5814 122.984 23.2575 123.69C24.3001 123.13 25.3508 122.594 26.4016 122.05C25.7296 122.903 25.0698 123.743 24.3937 124.599C24.9476 124.895 25.3223 125.268 25.9658 125.487C27.6397 126.047 29.8064 127.151 31.6309 126.437C35.8788 124.765 36.6037 118.93 36.3716 114.986C36.172 111.626 34.7995 109.407 33.0401 106.753C31.692 107.597 30.3847 108.417 29.0774 109.293Z" fill="#121B46"/>
<path d="M32.9546 136.078C32.7387 136.078 32.5595 135.907 32.5473 135.688C32.5392 135.55 31.8305 121.904 23.0294 106.761C14.2812 91.7028 1.15077 89.329 1.01637 89.3088C0.796441 89.2722 0.645751 89.0612 0.682405 88.8421C0.719059 88.623 0.926768 88.4729 1.15077 88.5094C1.28517 88.5337 14.7821 90.9521 23.7339 106.359C32.641 121.689 33.3537 135.522 33.3578 135.66C33.3659 135.883 33.1949 136.074 32.9709 136.082C32.9668 136.078 32.9586 136.078 32.9546 136.078Z" fill="#3697C2"/>
<path d="M22.671 131.955C22.671 131.955 22.3044 149.062 33.3293 148.997C44.5292 148.928 43.3766 131.955 43.3766 131.955H22.671Z" fill="#FDB32C"/>
<path d="M59.3702 113.391L59.753 144.928L61.8301 147.172L66.139 144.765C67.1287 137.121 68.9451 124.708 70.3869 113.391H59.3702Z" fill="#FA9778"/>
<path d="M58.3602 143.674C58.2746 143.588 58.1321 143.633 58.1077 143.751C57.9895 144.258 57.7167 145.398 57.4112 146.486C57.0895 147.634 57.9814 148.531 58.3724 148.859C58.4823 148.949 58.6127 148.997 58.7552 148.993L75.2049 148.981C75.2049 148.981 75.9421 147.853 70.6312 146.583C65.3204 145.313 67.3405 143.771 65.6951 143.99C64.0497 144.209 61.9849 146.441 60.3884 145.305C59.2887 144.526 58.6534 143.954 58.3602 143.674Z" fill="#FDB32C"/>
<path d="M49.5713 113.391C50.7686 125.098 52.2144 137.981 53.0453 145.573L56.8044 147.541L60.8893 144.976L60.9871 113.387H49.5713V113.391Z" fill="#FA9778"/>
<path d="M60.9097 143.804C60.8323 141.775 60.8038 139.746 60.7794 137.717C60.7549 135.688 60.7671 133.66 60.759 131.631C60.7834 129.602 60.7916 127.573 60.8323 125.544L60.9015 122.501C60.9382 121.486 60.9626 120.472 61.0156 119.458C61.0563 120.472 61.0726 121.486 61.1011 122.501L61.1459 125.544C61.1704 127.573 61.1581 129.602 61.1663 131.631C61.1418 133.66 61.1337 135.688 61.093 137.717C61.0522 139.746 61.0034 141.775 60.9097 143.804Z" fill="#121B46"/>
<path d="M53.0005 143.674C52.915 143.589 52.7724 143.634 52.748 143.751C52.6299 144.258 52.357 145.399 52.0515 146.486C51.7298 147.634 52.6217 148.531 53.0127 148.86C53.1227 148.949 53.253 148.998 53.3955 148.994L69.8452 148.982C69.8452 148.982 70.5824 147.854 65.2716 146.583C59.9607 145.313 61.9808 143.771 60.3354 143.991C58.6901 144.21 56.6252 146.441 55.0287 145.305C53.925 144.526 53.2896 143.954 53.0005 143.674Z" fill="#FDB32C"/>
<path d="M51.0334 74.6724C51.0334 74.6724 46.8588 80.556 46.757 88.3671C46.6552 96.1782 49.7097 117.786 49.7097 117.786L50.5243 118.013C56.9958 119.81 63.8461 119.729 70.2769 117.786C70.2769 117.786 76.2842 85.4253 68.6478 74.8752L51.0334 74.6724Z" fill="#121B46"/>
<path d="M49.4572 82.6865C49.2413 84.127 49.0947 85.5716 49.0051 87.0242C48.9033 88.4728 48.8667 89.9255 48.9033 91.3741C48.94 92.8267 49.0377 94.2632 49.2169 95.7118L49.6975 100.049L50.5731 108.733L50.9763 113.079C51.0985 114.527 51.2288 115.98 51.3388 117.429C51.1392 115.988 50.9641 114.544 50.7768 113.099L50.2595 108.765L49.2902 100.086L48.8463 95.7442C48.6834 94.3037 48.5775 92.8349 48.5856 91.3741C48.5979 88.4566 48.8707 85.5391 49.4572 82.6865Z" fill="white"/>
<path d="M84.9427 44.9984C84.7024 45.0917 84.2463 45.4123 83.501 46.4551C83.501 46.4551 84.4907 43.9231 84.2952 43.4767C84.0956 43.0263 82.381 46.0655 82.381 46.0655C82.381 46.0655 83.1915 43.1034 82.8616 42.795C82.5358 42.4866 81.1999 45.6882 81.1999 45.6882C81.1999 45.6882 81.8556 42.5881 81.599 42.5759C80.9515 42.5394 79.9089 46.869 79.4649 46.7107C79.0699 46.5728 78.8948 45.4853 78.9029 44.9172C78.9029 44.7995 78.8092 44.7103 78.687 44.7265C78.4508 44.759 78.1046 44.905 78.0598 45.5056C77.9988 46.2765 77.9092 47.7982 78.4712 49.5592V49.5633C78.2879 49.9204 78.0558 50.3667 77.791 50.878C78.3816 51.1296 78.9721 51.373 79.5627 51.6084C80.2917 51.8965 81.0492 52.2211 81.8271 52.5295C81.9371 51.5881 82.0185 50.6426 82.0715 49.6931C83.1467 48.4393 84.792 46.378 85.1342 45.1647C85.1586 45.043 85.0568 44.9537 84.9427 44.9984Z" fill="#F28766"/>
<path d="M68.599 49.6646C68.599 49.6646 70.8919 50.5288 71.5028 51.9977C72.1137 53.4666 73.4373 59.963 73.4373 59.963L78.068 49.9202L82.2955 50.8859C82.2955 50.8859 81.5298 62.5031 77.2046 70.3629C72.8753 78.2268 67.4301 70.5171 66.6155 67.7254C65.801 64.9337 64.2208 53.7263 64.8317 52.6104C65.4426 51.4946 68.599 49.6646 68.599 49.6646Z" fill="#FDB32C"/>
<path d="M78.1169 51.3403C78.7441 51.3484 79.3387 51.4742 79.9292 51.6284C80.5116 51.7948 81.09 51.9896 81.6316 52.3061C81.0044 52.302 80.4098 52.1762 79.8193 52.018C79.2369 51.8516 78.6626 51.6528 78.1169 51.3403Z" fill="#121B46"/>
<path d="M66.7621 48.7071C66.1512 48.354 65.6422 47.9888 65.2186 47.4735C65.1168 47.1124 64.8846 46.2237 64.7054 45.2174C64.5507 44.3207 64.4407 43.3387 64.5181 42.5637C64.5547 42.1823 64.6362 41.8536 64.7828 41.6101L56.0794 36.7368C56.0876 36.7652 56.0876 36.7936 56.0957 36.822C56.2342 37.6255 57.2809 43.9271 56.2098 47.2787C55.8473 47.4451 55.44 47.5871 54.9757 47.6845C57.2279 50.7521 58.633 54.3148 60.9178 57.3743C62.1641 59.042 63.785 60.8356 66.0698 60.4785C66.2938 60.442 66.5015 60.3933 66.697 60.3324C66.9699 58.4618 66.9414 56.437 66.9576 54.8545C66.9739 52.9717 66.5463 50.7237 66.7621 48.7071Z" fill="#FA9778"/>
<path d="M64.7014 45.2177C59.973 45.8141 57.5782 40.1861 57.4886 39.9751C58.3602 41.3547 59.6268 42.0526 60.8649 42.3894C62.3881 42.8033 63.8624 42.6654 64.4855 42.572C64.4937 42.568 64.5059 42.568 64.514 42.5639C64.4366 43.3389 64.5466 44.3209 64.7014 45.2177Z" fill="#FA7C55"/>
<path d="M56.0916 47.1123L63.0152 58.8107L65.2878 47.7859C65.2878 47.7859 69.8696 49.8837 70.957 51.8436C72.0444 53.8035 72.7898 58.6078 72.2481 61.3792C71.7064 64.1506 68.041 72.7408 69.1936 75.2444C70.3461 77.748 71.5679 80.5194 71.7716 82.1425H67.6296L66.0005 79.574L64.7787 82.2115H47.0624C47.0624 82.2115 51.6768 72.404 51.8805 71.1218C52.0841 69.8395 48.9603 58.409 48.7567 55.8364C48.5531 53.2679 50.1821 48.8044 51.2696 48.2606C52.357 47.721 56.0916 47.1123 56.0916 47.1123Z" fill="#FDB32C"/>
<path d="M56.0916 47.1123L55.5133 53.4951L58.2298 54.5176L56.3279 59.8616L62.8972 68.1799L67.4952 59.5898L66.3427 54.757L69.9063 54.3147L65.2634 47.6479L63.0153 58.8147L56.0916 47.1123Z" fill="#FEE37A"/>
<path d="M56.0916 47.1123L62.5143 52.7079L65.2878 47.51L69.6008 50.0907L66.9169 50.0217L63.0152 58.8147L56.4582 49.7945L53.7824 50.8332L56.0916 47.1123Z" fill="white"/>
<path d="M56.6333 49.8672C56.8532 49.6075 57.122 49.4655 57.399 49.3478C57.68 49.2423 57.9732 49.1653 58.3153 49.2058C58.0954 49.4655 57.8266 49.6075 57.5497 49.7252C57.2687 49.8307 56.9754 49.9078 56.6333 49.8672Z" fill="#121B46"/>
<path d="M66.9169 50.0216C66.4771 49.977 66.0983 49.8228 65.7277 49.6443C65.3652 49.4536 65.019 49.2344 64.7258 48.9058C65.1656 48.9504 65.5444 49.1005 65.915 49.2831C66.2775 49.4738 66.6277 49.693 66.9169 50.0216Z" fill="#121B46"/>
<path d="M75.4609 55.1051L61.1168 52.499L57.2641 73.5487L71.6082 76.1548L75.4609 55.1051Z" fill="#D93C3B"/>
<path d="M71.8856 76.4943L57.5456 73.8893L61.3943 52.8379L75.3271 55.2116L75.828 55.7594L71.8856 76.4943Z" fill="white"/>
<path d="M76.0229 55.775L61.6788 53.1689L57.8261 74.2186L72.1702 76.8247L76.0229 55.775Z" fill="#FF5C5B"/>
<path d="M76.0195 55.7716L75.4574 55.1021L75.3271 55.2116L75.8036 55.7351L76.0195 55.7716Z" fill="#D93C3B"/>
<path d="M50.5242 74.6199C50.5242 74.6199 56.1405 73.0821 57.5171 72.2178C57.5171 72.2178 54.1245 76.6975 49.5427 76.7665L50.5242 74.6199Z" fill="#121B46"/>
<path d="M74.9605 61.4526C75.1275 60.99 71.7838 62.0207 71.7838 62.0207C71.7838 62.0207 74.4148 60.426 74.3903 59.9756C74.3659 59.5292 71.1892 60.9373 71.1892 60.9373C71.1892 60.9373 73.8039 59.1357 73.6247 58.949C73.1767 58.4824 69.4339 60.9089 69.2221 60.4909C69.0307 60.1217 69.6538 59.2127 70.0488 58.8029C70.1303 58.7177 70.1262 58.5879 70.0244 58.5148C69.833 58.3769 69.4787 58.247 69.0307 58.6487C68.4523 59.1722 67.3323 60.2231 66.5259 61.899C66.5219 61.899 66.5219 61.899 66.5178 61.903C66.3386 61.9679 65.0435 62.4183 63.0234 63.1203C63.0234 63.3232 63.0234 63.5261 63.0316 63.729C63.1049 65.21 63.2352 66.7073 63.4022 68.1803C63.4185 68.3142 63.4388 68.4521 63.4551 68.5861C65.1412 67.3403 66.7662 65.9932 68.2853 64.5243L68.2772 64.5162V64.5121C69.7189 64.3823 73.1237 64.009 74.3985 63.2461C74.5044 63.1852 74.4922 63.0473 74.3781 63.0026C74.1378 62.9053 73.588 62.8282 72.3296 63.0716C72.3296 63.0716 74.7935 61.9111 74.9605 61.4526Z" fill="#FA9778"/>
<path d="M65.7969 61.9394L54.2915 65.847C54.2915 65.847 55.2364 62.2559 55.5011 58.3199C54.7436 58.044 54.0472 57.6139 53.5869 56.9971C53.3589 56.6928 53.2204 56.3925 53.143 56.0963C53.0697 55.9989 53.0045 55.8975 52.9394 55.7879C52.9027 55.723 52.8742 55.6581 52.8457 55.5932C52.7357 55.6459 52.6176 55.6946 52.4873 55.7311C51.4813 56.007 50.1944 55.3903 49.9826 54.315C49.502 51.8966 50.3939 49.7866 52.2755 48.5733C51.9456 48.4475 51.5872 48.3542 51.1963 48.3096C51.1963 48.3096 48.2313 50.5291 47.315 53.5724C46.3986 56.6157 44.1586 70.6148 47.1113 73.861C50.064 77.1071 63.3533 69.8033 67.3731 65.7455L65.7969 61.9394Z" fill="#FDB32C"/>
<path d="M50.8827 67.5188C52.0352 66.8695 53.2041 66.2568 54.377 65.6563L54.3811 65.6522L54.3933 65.6482C55.326 65.3114 56.2627 64.9868 57.2035 64.6703C58.1443 64.3497 59.0851 64.0454 60.03 63.737C60.9748 63.4327 61.9238 63.1405 62.8768 62.8605C63.8257 62.5684 64.7828 62.3006 65.744 62.0449C64.8195 62.4142 63.895 62.7712 62.9582 63.104C62.0256 63.4489 61.0929 63.7816 60.1521 64.1022C59.2114 64.4227 58.2746 64.7392 57.3298 65.0476C56.3849 65.356 55.44 65.6603 54.4911 65.9444L54.5114 65.9363C53.31 66.48 52.1085 67.0197 50.8827 67.5188Z" fill="#121B46"/>
<path d="M51.3388 65.1857C51.6035 65.2101 51.8642 65.2425 52.1289 65.279C52.3896 65.3155 52.6543 65.3399 52.9149 65.3845L54.4789 65.628L54.2752 65.766L54.8617 62.0329L55.159 60.1663C55.2405 59.5414 55.3464 58.9206 55.3627 58.2876C55.4563 58.9165 55.44 59.5577 55.4034 60.1907C55.3667 60.8237 55.3138 61.4567 55.2323 62.0816C55.0735 63.3354 54.8739 64.5852 54.6173 65.8268L54.5807 66.0054L54.4137 65.9648L52.8742 65.5996C52.6176 65.5428 52.3611 65.4657 52.1085 65.4008C51.8479 65.3318 51.5954 65.2628 51.3388 65.1857Z" fill="#121B46"/>
<path d="M64.1678 63.0552C64.5914 63.5583 64.905 64.1183 65.1901 64.6904C65.463 65.2666 65.7114 65.8591 65.8458 66.5042C65.4222 66.0011 65.1086 65.4411 64.8236 64.869C64.5507 64.2928 64.3063 63.7004 64.1678 63.0552Z" fill="#121B46"/>
<path d="M52.8661 49.9692C53.3711 50.1965 53.8069 50.5617 54.1693 50.9837C54.5359 51.4057 54.825 51.8926 55.049 52.3998C55.2527 52.9192 55.4115 53.4548 55.4726 54.0067C55.5174 54.2785 55.5093 54.5585 55.5256 54.8304C55.5093 55.1063 55.497 55.3782 55.4604 55.65C55.4034 55.3782 55.3789 55.1104 55.326 54.8466C55.2649 54.5829 55.2323 54.3191 55.159 54.0635C55.0368 53.5441 54.8739 53.045 54.6744 52.5581C54.4666 52.0752 54.2141 51.6126 53.9168 51.1784C53.6195 50.7443 53.2815 50.3263 52.8661 49.9692Z" fill="#121B46"/>
<path d="M69.1529 34.6596C69.0551 32.1033 68.7415 29.4779 67.8618 27.2178C66.7255 24.3084 61.3699 23.1763 57.6352 26.4103C55.9002 27.9117 55.5378 30.6344 55.6396 33.1218C55.55 33.0771 55.4685 33.0447 55.4156 33.0284C54.654 32.8377 53.8924 33.4099 53.6643 34.124C53.4811 34.6921 53.6073 35.3332 53.9291 35.8323C54.1979 36.2462 54.6377 36.6357 55.1061 36.8102C55.2242 36.8549 55.7496 36.9401 56.1202 36.9117C56.4745 38.5469 57.3135 40.0605 58.6086 41.1276C60.2377 42.4788 62.327 43.0185 64.4041 42.5884C66.0209 42.2557 68.4116 41.225 69.0062 39.5532C69.1569 39.115 69.1732 38.6484 69.1773 38.1858C69.1773 38.0803 69.1814 37.9707 69.1814 37.8652C69.1976 36.8305 69.1936 35.7512 69.1529 34.6596Z" fill="#FA9778"/>
<path d="M69.1854 37.8658C69.051 37.9023 68.9044 37.9226 68.7618 37.9226C67.8455 37.9226 67.1042 37.18 67.1042 36.2711C67.1042 35.3541 67.8496 34.6196 68.7618 34.6196C68.8962 34.6196 69.0266 34.6359 69.1528 34.6643C69.1936 35.7517 69.1976 36.8311 69.1854 37.8658Z" fill="#FA7C55"/>
<path d="M58.8407 36.2669C58.8407 37.1799 59.582 37.9224 60.4983 37.9224C61.4147 37.9224 62.16 37.1839 62.16 36.2669C62.16 35.3539 61.4188 34.6113 60.4983 34.6113C59.586 34.6154 58.8407 35.3539 58.8407 36.2669Z" fill="#FA7C55"/>
<path d="M66.7051 34.0388C66.9706 34.0388 67.1857 33.601 67.1857 33.0609C67.1857 32.5208 66.9706 32.083 66.7051 32.083C66.4397 32.083 66.2246 32.5208 66.2246 33.0609C66.2246 33.601 66.4397 34.0388 66.7051 34.0388Z" fill="#121B46"/>
<path d="M67.6826 31.7706C67.6011 31.9288 67.4952 32.0668 67.3568 32.1885C67.2224 32.3103 67.0473 32.4036 66.8558 32.4482H66.8477C66.754 32.4685 66.6563 32.4117 66.6359 32.3143C66.6155 32.221 66.6726 32.1236 66.7703 32.1033C66.7866 32.0993 66.8029 32.0993 66.8151 32.0993C67.0839 32.1114 67.3812 31.9491 67.5848 31.7097L67.5889 31.7057C67.6093 31.6813 67.6459 31.6773 67.6704 31.6976C67.6907 31.7219 67.6948 31.7503 67.6826 31.7706Z" fill="#121B46"/>
<path d="M63.0356 33.0609C63.0356 33.6006 62.8198 34.0388 62.555 34.0388C62.2903 34.0388 62.0745 33.6006 62.0745 33.0609C62.0745 32.5212 62.2903 32.083 62.555 32.083C62.8198 32.083 63.0356 32.5172 63.0356 33.0609Z" fill="#121B46"/>
<path d="M61.6754 31.7144C61.879 31.9497 62.1763 32.112 62.4451 32.1039C62.5428 32.0998 62.6243 32.1769 62.6284 32.2743C62.6324 32.3717 62.5551 32.4529 62.4573 32.4569C62.441 32.4569 62.4247 32.4569 62.4125 32.4529L62.4044 32.4488C62.2089 32.4042 62.0378 32.3108 61.9034 32.1891C61.765 32.0674 61.6591 31.9294 61.5776 31.7712C61.5613 31.7428 61.5735 31.7103 61.602 31.6941C61.6265 31.6819 61.655 31.69 61.6754 31.7144Z" fill="#121B46"/>
<path d="M66.4282 36.0151C66.2612 36.3357 66.0087 36.6157 65.7073 36.8348C65.4059 37.0539 65.0272 37.1919 64.6362 37.1878C64.2493 37.1797 63.8665 37.0458 63.5691 36.8226C63.4144 36.7212 63.2922 36.5792 63.1537 36.4574C63.0397 36.3114 62.9297 36.1693 62.832 36.0192C62.9786 36.1288 63.113 36.2424 63.2515 36.3519C63.4022 36.4453 63.5366 36.5548 63.6913 36.6319C63.9886 36.8023 64.3145 36.8957 64.6403 36.8997C64.9661 36.9078 65.2919 36.8064 65.5933 36.6441C65.8865 36.4777 66.1675 36.2667 66.4282 36.0151Z" fill="#121B46"/>
<path d="M65.1371 37.752C64.9987 37.8737 64.8113 37.9183 64.6321 37.9224C64.4489 37.9183 64.2656 37.8696 64.1271 37.752C64.3022 37.7804 64.4652 37.8128 64.6321 37.8088C64.7991 37.8128 64.962 37.7844 65.1371 37.752Z" fill="#121B46"/>
<path d="M63.4348 29.6689C63.2108 29.47 62.9583 29.4051 62.6935 29.393C62.4288 29.3889 62.16 29.4173 61.9034 29.5066C61.6428 29.5837 61.4065 29.7297 61.207 29.9042C60.9993 30.0706 60.8526 30.2938 60.7305 30.5129C60.6694 30.6224 60.7101 30.7604 60.8201 30.8253C60.9097 30.874 61.0156 30.8578 61.0848 30.7929L61.1052 30.7766C61.2599 30.6346 61.4106 30.5007 61.5776 30.4033C61.7405 30.2938 61.9197 30.237 62.0989 30.1883C62.2822 30.1477 62.4695 30.1233 62.665 30.1355C62.8564 30.1436 63.0601 30.1517 63.2719 30.099L63.3329 30.0828C63.4633 30.0503 63.5407 29.9205 63.5081 29.7947C63.4959 29.7419 63.4673 29.7013 63.4348 29.6689Z" fill="#121B46"/>
<path d="M65.8295 29.6689C66.0535 29.47 66.306 29.4051 66.5708 29.393C66.8355 29.3889 67.1043 29.4173 67.3609 29.5066C67.6215 29.5837 67.8577 29.7297 68.0573 29.9042C68.265 30.0706 68.4116 30.2938 68.5338 30.5129C68.5949 30.6224 68.5542 30.7604 68.4442 30.8253C68.3546 30.874 68.2487 30.8578 68.1795 30.7929L68.1591 30.7766C68.0044 30.6346 67.8537 30.5007 67.6867 30.4033C67.5278 30.2938 67.3446 30.237 67.1654 30.1883C66.9821 30.1477 66.7948 30.1233 66.5993 30.1355C66.4078 30.1436 66.2042 30.1517 65.9924 30.099L65.9313 30.0828C65.801 30.0503 65.7236 29.9205 65.7562 29.7947C65.7684 29.7419 65.7929 29.7013 65.8295 29.6689Z" fill="#121B46"/>
<path d="M64.7421 31.564C64.8276 31.9332 64.8887 32.2984 64.958 32.6595C65.0272 33.0207 65.0964 33.3818 65.1983 33.7227C65.2227 33.8079 65.2471 33.8931 65.2797 33.9742C65.3042 34.0392 65.3653 34.169 65.3612 34.2907C65.3734 34.5342 65.2186 34.7736 65.0191 34.871C64.8154 34.9846 64.5792 34.9684 64.3919 34.9035C64.2045 34.8345 64.0375 34.733 63.895 34.6072C64.2371 34.7371 64.6403 34.8345 64.8847 34.6559C65.0069 34.5626 65.072 34.4409 65.0557 34.307C65.0476 34.238 65.0272 34.1934 64.9824 34.0919C64.9458 33.9986 64.9132 33.9093 64.8847 33.816C64.7788 33.4427 64.7258 33.0694 64.7055 32.692C64.6851 32.3187 64.6932 31.9413 64.7421 31.564Z" fill="#121B46"/>
<path d="M54.2671 34.6559C54.263 34.4327 54.3241 34.1811 54.5237 34.0107C54.7354 33.8403 55.0368 33.8525 55.2649 33.9377C55.5093 34.0229 55.7048 34.1852 55.8636 34.3719C56.0224 34.5585 56.1405 34.7614 56.2342 34.9967C56.2668 35.082 56.2261 35.1753 56.1446 35.2077C56.0794 35.2321 56.0102 35.2159 55.9654 35.1712L55.9532 35.1591C55.7944 34.9967 55.5948 34.8263 55.4034 34.7736C55.3097 34.7492 55.2364 34.7533 55.1712 34.7979C55.102 34.8466 55.049 34.9481 55.0083 35.0536C54.9228 35.2686 54.8739 35.5202 55.0572 35.6176C55.2486 35.7271 55.5337 35.6987 55.7821 35.6663C55.5459 35.7718 55.2812 35.857 54.9839 35.7718C54.8332 35.7231 54.711 35.5527 54.7029 35.3985C54.6866 35.2443 54.711 35.1022 54.7477 34.9643C54.7884 34.8304 54.8454 34.6843 54.9798 34.5666C55.1142 34.4449 55.3301 34.4165 55.4808 34.4652C55.7903 34.5585 56.0021 34.7371 56.1976 34.944L55.9165 35.1104C55.7658 34.7371 55.5215 34.3475 55.1631 34.173C54.9839 34.0878 54.7721 34.0432 54.6051 34.1406C54.43 34.2217 54.3241 34.4408 54.2671 34.6559Z" fill="#121B46"/>
<path d="M69.9389 29.9362C70.2769 22.8352 60.7753 20.6035 55.9532 25.8095C51.9904 30.0904 52.8457 39.4029 53.2774 42.58C53.3711 43.2658 53.8232 43.8542 54.4748 44.1017C55.1794 44.3736 55.9043 44.5967 56.6333 44.7753C56.8573 41.5859 56.2505 37.7595 56.1039 36.9114C55.7373 36.9439 55.2242 36.8587 55.1061 36.814C54.6377 36.6355 54.1978 36.246 53.929 35.8321C53.6032 35.333 53.481 34.6919 53.6643 34.1238C53.8883 33.4137 54.654 32.8415 55.4115 33.0322C55.4645 33.0444 55.5459 33.0769 55.6355 33.1215C55.6355 33.1012 55.6355 33.0809 55.6355 33.0607C59.9607 34.7649 64.119 27.5016 64.119 27.5016C64.119 27.5016 67.4667 32.03 68.9981 32.4195C69.0714 33.1662 69.1203 33.9168 69.1488 34.6594C69.1936 35.7509 69.1976 36.8303 69.1813 37.865V38.1855C69.1773 38.6481 69.161 39.1188 69.0062 39.553C68.4238 41.1882 66.1268 42.2148 64.514 42.5679C64.4326 43.3388 64.5466 44.3249 64.7014 45.2176C64.7136 45.2784 64.7217 45.3393 64.7339 45.3961C67.874 45.2216 70.1425 44.6779 70.1425 44.6779C70.1425 44.6779 69.5968 37.0372 69.9389 29.9362Z" fill="white"/>
<path d="M95.9268 138.626C95.9228 142.713 95.9391 145.273 95.9391 145.273L102.533 145.934L103.535 138.631H95.9268V138.626Z" fill="#F7BB8B"/>
<path d="M95.2426 143.987C95.2426 143.987 93.8335 145.33 92.6076 145.882C91.3817 146.43 85.8632 146.125 86.2338 148.876H98.9855L100.118 147.748V149.002H102.663C102.663 149.002 103.645 146.194 102.724 144.482C102.724 144.482 100.883 146.129 98.8633 145.399C96.8432 144.669 95.2426 143.987 95.2426 143.987Z" fill="#121B46"/>
<path d="M119.435 138.626L120.339 145.525L126.769 146.218C126.769 146.218 126.814 143.268 126.859 138.626H119.435Z" fill="#F7BB8B"/>
<path d="M127.661 143.987C127.661 143.987 129.071 145.33 130.296 145.882C131.522 146.43 137.041 146.125 136.67 148.876H123.919L122.786 147.748V149.002H120.241C120.241 149.002 119.259 146.194 120.18 144.482C120.18 144.482 122.021 146.129 124.041 145.399C126.065 144.66 127.661 143.987 127.661 143.987Z" fill="#121B46"/>
<path d="M127.262 143.362H119.524L111.652 84.7968L103.641 143.5H95.4951C95.4951 143.5 95.9024 97.5136 96.8513 87.6372C97.8003 77.7648 101.739 68.1602 101.739 68.1602H120.913C120.913 68.1602 126.309 77.8987 126.582 88.8545C126.855 99.8103 126.855 99.8103 126.855 99.8103L127.262 143.362Z" fill="#121B46"/>
<path d="M113.549 68.7852C113.598 70.4853 113.639 72.1855 113.663 73.8816C113.684 75.5818 113.72 77.2779 113.725 78.9781V79.0065L113.716 79.0349L111.859 84.878L111.456 86.144L111.46 84.8172L111.481 80.8122C111.489 79.4772 111.485 78.1422 111.509 76.8032C111.542 74.1332 111.582 71.4592 111.664 68.7892C111.749 71.4592 111.786 74.1332 111.819 76.8032C111.843 78.1382 111.839 79.4732 111.847 80.8122L111.867 84.8172L111.472 84.7563L113.382 78.9335L113.374 78.9862C113.378 77.2861 113.415 75.5899 113.435 73.8898C113.464 72.1815 113.501 70.4853 113.549 68.7852Z" fill="white"/>
<path d="M118.49 68.9351C118.575 69.353 118.657 69.771 118.767 70.1808C118.864 70.5906 118.974 71.0004 119.101 71.4021C119.353 72.2056 119.642 72.9928 120.033 73.7272C120.42 74.4617 120.901 75.1474 121.54 75.6668C122.171 76.1984 122.982 76.4824 123.837 76.5433C123.409 76.596 122.974 76.5676 122.546 76.4702C122.118 76.3607 121.719 76.1618 121.353 75.9143C120.616 75.4112 120.086 74.6767 119.675 73.9139C119.276 73.1389 118.987 72.3192 118.803 71.4792C118.608 70.6434 118.49 69.7912 118.49 68.9351Z" fill="white"/>
<path d="M104.182 69.1382C104.194 69.9741 104.109 70.81 103.946 71.6337C103.783 72.4574 103.543 73.2689 103.184 74.044C102.826 74.8109 102.345 75.5494 101.657 76.089C101.319 76.3609 100.924 76.5679 100.509 76.6774C100.089 76.7829 99.6574 76.8073 99.2461 76.7464C100.085 76.7099 100.871 76.4015 101.453 75.8496C102.04 75.3059 102.476 74.612 102.814 73.8735C103.164 73.1391 103.412 72.3559 103.636 71.5606C103.852 70.7694 104.036 69.9619 104.182 69.1382Z" fill="white"/>
<path d="M96.1386 141.67C97.3278 141.511 98.513 141.475 99.7022 141.467C100.891 141.471 102.077 141.507 103.266 141.67C102.077 141.832 100.891 141.869 99.7022 141.873C98.5171 141.869 97.3278 141.832 96.1386 141.67Z" fill="white"/>
<path d="M119.659 141.67C120.848 141.511 122.033 141.475 123.222 141.467C124.411 141.471 125.597 141.507 126.786 141.67C125.597 141.832 124.411 141.869 123.222 141.873C122.037 141.869 120.848 141.832 119.659 141.67Z" fill="white"/>
<path d="M124.493 40.5757C123.552 39.4923 122.159 38.9202 120.664 38.8634C119.72 38.8269 118.909 38.6686 118.205 38.4251C117.598 37.5933 115.545 36.4693 115.117 34.7489C114.991 33.9495 114.914 33.1136 114.983 32.436V32.4319C115.02 32.0505 115.101 31.7218 115.248 31.4783L111.452 29.5469L107.457 30.821C107.554 30.9874 107.66 31.4905 107.73 31.9206C107.782 32.5983 107.766 33.7425 107.677 34.6028H107.673C107.33 36.4044 105.196 37.569 104.573 38.4251C103.869 38.6686 103.058 38.8269 102.113 38.8634C100.623 38.9202 99.2257 39.4923 98.2849 40.5757C97.0061 42.0487 96.1712 44.6943 97.6903 49.2633C100.317 57.1758 102.325 63.2218 102.288 66.7966H120.497C120.461 63.2218 122.465 57.1758 125.096 49.2633C126.602 44.6943 125.768 42.0487 124.493 40.5757ZM107.799 32.436L107.766 32.1682C107.778 32.2696 107.791 32.367 107.799 32.436Z" fill="#F7BB8B"/>
<path d="M101.735 66.0543C101.625 66.4966 101.616 67.1418 101.633 67.6328C101.645 68.0264 101.959 68.3429 102.354 68.3672C105.742 68.5579 120.616 69.3451 120.917 68.3266C121.255 67.1783 120.986 66.0259 120.986 66.0259C120.986 66.0259 121.768 60.9862 123.055 56.965C124.346 52.9398 126.651 46.1796 126.008 43.2703C125.364 40.3609 122.953 38.8758 121.357 38.7053C119.76 38.5349 117.659 37.6909 117.659 37.6909C117.659 37.6909 113.179 40.158 111.582 40.3609C109.986 40.5638 105.2 37.6909 105.2 37.6909C105.2 37.6909 103.641 38.3686 102.317 38.6039C100.993 38.8392 96.9532 39.4479 96.5459 44.2157C96.1875 48.4236 100.643 61.9154 101.69 65.0155C101.808 65.3523 101.82 65.7094 101.735 66.0543Z" fill="white"/>
<path d="M113.297 40.1255L111.391 40.1458L109.481 40.1255L108.919 42.69L110.523 45.0962H110.678H112.104H112.254L113.859 42.69L113.297 40.1255Z" fill="#FF5C5B"/>
<path d="M116.417 36.0962L111.733 39.4925L111.403 39.4681H111.391H111.379L111.045 39.4925L106.361 36.0962L103.233 38.2265L107.51 41.6999L110.768 40.5069L111.379 41.6025V41.6471L111.391 41.6268L111.403 41.6471V41.6025L112.014 40.5069L115.272 41.6999L119.549 38.2265L116.417 36.0962Z" fill="#EDF9FF"/>
<path d="M110.699 44.082L108.56 62.9504L111.464 65.5392L114.364 62.8489L112.254 45.0965L110.699 44.082Z" fill="#FF5C5B"/>
<path d="M103.404 38.3359L107.408 41.647L109.31 41.0749L107.579 42.4261L103.404 38.3359Z" fill="#121B46"/>
<path d="M113.448 41.0384L115.215 41.6836L119.422 38.3359L115.35 42.629L113.448 41.0384Z" fill="#121B46"/>
<path d="M124.77 63.035C124.737 63.0269 124.705 63.0229 124.672 63.0188C117.826 61.9395 110.442 59.9228 103.93 56.1978L104.683 54.035L105.029 53.0896C105.029 53.0896 105.074 53.0936 105.156 53.1018C105.999 53.1748 110.898 53.7469 117.174 54.2582C118.701 54.384 120.306 54.5138 121.951 54.6437C121.715 53.9336 121.487 53.2478 121.263 52.5864C121.178 52.343 121.096 52.0995 121.015 51.8642C120.897 51.5193 120.783 51.1825 120.669 50.8619C120.107 49.2348 119.602 47.843 119.194 46.7961C118.636 45.3637 118.331 44.187 118.196 43.2131C117.74 39.9588 121.121 37.9503 123.8 39.9467C124.847 40.7298 125.926 42.0283 126.831 44.1626C127.881 46.6297 129.539 50.5413 131.111 55.3376C131.131 55.4025 131.156 55.4715 131.176 55.5404C132.508 59.6306 129.03 63.7046 124.77 63.035Z" fill="white"/>
<path d="M119.084 45.7734C119.394 46.4835 119.671 47.2058 119.935 47.9321C120.208 48.6544 120.465 49.3848 120.705 50.1152C120.954 50.8456 121.186 51.5841 121.406 52.3226C121.634 53.0611 121.829 53.8077 122.033 54.5543L121.919 54.4975C122.302 54.4082 122.68 54.3068 123.067 54.2297C122.705 54.388 122.338 54.5259 121.976 54.672L121.899 54.7045L121.866 54.6152C121.593 53.8929 121.312 53.1706 121.06 52.4403C120.803 51.7099 120.559 50.9795 120.326 50.245C120.09 49.5106 119.866 48.7721 119.663 48.0255C119.451 47.2788 119.255 46.5322 119.084 45.7734Z" fill="#121B46"/>
<path d="M111.073 59.5007L117.761 56.7617L112.499 60.0769L111.073 59.5007Z" fill="#121B46"/>
<path d="M122.306 55.2926C122.102 55.2439 122.013 55.1425 121.947 55.0289C121.894 54.9071 121.866 54.7732 121.951 54.5825C122.155 54.6272 122.249 54.7327 122.31 54.8463C122.363 54.968 122.391 55.1019 122.306 55.2926Z" fill="#121B46"/>
<path d="M114.128 60.6167C115.407 60.7668 116.665 61.0346 117.911 61.3349C119.158 61.6433 120.392 61.9841 121.593 62.4427C120.306 62.2925 119.056 62.0247 117.81 61.7245C116.571 61.4161 115.337 61.0793 114.128 60.6167Z" fill="#121B46"/>
<path d="M105.025 53.1141L104.687 54.0393L101.197 54.3477C99.8 54.4694 98.3908 54.1529 97.2097 53.3982C96.9532 53.2359 96.7821 53.0938 96.7699 53.0127C96.6844 52.5745 100.11 53.1588 100.11 53.1588C100.11 53.1588 97.1283 52.0551 97.2545 51.8278C97.5722 51.2638 101.8 52.7002 101.906 52.2417C101.995 51.8359 101.172 51.1096 100.684 50.8093C100.582 50.7485 100.558 50.6186 100.635 50.5253C100.79 50.3427 101.099 50.1317 101.633 50.4117C102.362 50.7972 105.025 53.1141 105.025 53.1141Z" fill="#F7BB8B"/>
<path d="M117.785 56.7702C119.288 56.0804 120.693 55.3662 121.951 54.648L116.824 53.2968L116.759 53.0614L100.891 54.3518C101.938 51.2071 102.867 48.5371 103.547 46.8004C104.105 45.3721 104.41 44.1913 104.545 43.2215C105.001 39.9631 101.616 37.9546 98.9406 39.951C97.894 40.7341 96.8147 42.0326 95.9105 44.1669C94.8639 46.634 93.2022 50.5497 91.6342 55.3419C91.6138 55.4068 91.5894 55.4758 91.569 55.5448C90.2373 59.6349 93.7154 63.7089 97.9795 63.0393C98.0121 63.0353 98.0406 63.0312 98.0732 63.0231C103.579 62.1588 111.452 59.6796 117.716 56.8067L117.797 56.8026L117.785 56.7702Z" fill="white"/>
<path d="M121.263 52.5909C120.946 52.6315 120.738 52.6152 120.713 52.5179C120.673 52.3393 120.807 52.0999 121.015 51.8646C120.897 51.5237 120.783 51.1869 120.669 50.8623C119.94 51.264 118.815 51.9782 117.789 53.1833L116.787 53.2848L117.789 56.8028L121.947 54.6522C121.715 53.934 121.487 53.2482 121.263 52.5909Z" fill="#F7BB8B"/>
<path d="M116.808 53.0776C115.488 53.2602 114.164 53.4104 112.841 53.5443C111.517 53.6904 110.194 53.804 108.866 53.9176C107.538 54.0312 106.215 54.1286 104.883 54.2179C103.555 54.295 102.227 54.3802 100.896 54.4289L100.953 54.3802C100.81 54.8143 100.667 55.2485 100.517 55.6827C100.615 55.2363 100.72 54.79 100.826 54.3477L100.834 54.3071L100.883 54.3031C102.207 54.1367 103.531 54.0069 104.854 53.8729C106.178 53.7472 107.506 53.6295 108.833 53.528C110.161 53.4266 111.489 53.3292 112.816 53.2602C114.148 53.175 115.476 53.1101 116.808 53.0776Z" fill="#121B46"/>
<path d="M99.1932 54.8875C99.4294 54.6481 99.7022 54.5264 99.9833 54.4331C100.268 54.3519 100.562 54.2992 100.891 54.3641C100.655 54.6035 100.382 54.7252 100.101 54.8185C99.8204 54.8997 99.5271 54.9524 99.1932 54.8875Z" fill="#121B46"/>
<path d="M100.79 62.4794C100.79 62.4794 105.677 61.5989 108.935 60.1787L101.401 64.0335L100.79 62.4794Z" fill="#121B46"/>
<path d="M102.113 50.5091C102.309 49.4703 102.618 48.4721 102.956 47.482C103.307 46.496 103.685 45.5221 104.182 44.5889C103.991 45.6276 103.677 46.6258 103.339 47.6159C102.989 48.6019 102.61 49.5758 102.113 50.5091Z" fill="#121B46"/>
<path d="M119.956 23.9959C119.728 23.2858 118.97 22.7177 118.209 22.9003C118.547 13.0279 110.287 14.3589 110.287 14.3589C105.103 14.8052 104.512 20.2993 104.549 23.0951C104.382 22.9977 104.223 22.9247 104.137 22.9044C103.376 22.7137 102.614 23.2858 102.386 24C102.203 24.568 102.329 25.2092 102.651 25.7083C102.92 26.1222 103.36 26.5117 103.828 26.6862C103.934 26.7268 104.374 26.7998 104.732 26.7917C105.534 33.2434 111.403 32.6104 111.403 32.6104C116.49 32.862 117.814 29.3196 118.107 26.7633C118.294 26.7389 118.453 26.7065 118.51 26.6862C118.978 26.5076 119.418 26.1222 119.687 25.7083C120.013 25.2051 120.139 24.564 119.956 23.9959Z" fill="#F7BB8B"/>
<path d="M119.268 20.5997C119.32 19.4839 117.919 15.272 114.38 14.363C113.244 14.0709 112.262 13.9857 111.452 14.0019C110.642 13.9857 109.664 14.0709 108.524 14.363C104.985 15.276 103.584 19.4879 103.636 20.5997C103.653 20.9528 103.763 21.3179 103.901 21.6507C104.272 22.5312 104.504 23.4604 104.516 24.418C104.528 25.2296 104.557 26.1182 104.626 26.8405C104.797 28.634 106.797 33.7711 110.971 33.7711C115.146 33.7711 117.081 30.6953 117.895 28.4636C118.294 27.3721 118.392 25.9194 118.388 24.7264C118.384 23.6714 118.587 22.6245 118.999 21.6547C119.141 21.3179 119.251 20.9528 119.268 20.5997ZM114.099 27.9807C114.099 27.9807 113.659 25.3757 111.281 25.3757C108.907 25.3757 108.259 27.7778 108.259 27.7778C107.168 27.4654 106.324 25.4609 105.836 23.9757C105.526 23.0303 105.84 21.9834 106.646 21.3991C106.654 21.395 106.658 21.391 106.667 21.3869C107.302 20.9284 106.768 20.7783 107.2 19.4839C107.225 19.4108 107.253 19.3418 107.286 19.2769C107.799 18.2097 109.249 18.088 110.1 18.9117C110.189 18.9969 110.291 19.074 110.405 19.1471C110.682 19.3581 111.012 19.492 111.399 19.4798H111.403C111.419 19.4798 111.436 19.4798 111.452 19.4798C111.468 19.4798 111.485 19.4798 111.501 19.4798H111.505C111.892 19.4879 112.222 19.3581 112.499 19.1471C112.613 19.074 112.715 18.9969 112.804 18.9117C113.655 18.084 115.105 18.2057 115.618 19.2769C115.651 19.3418 115.679 19.4149 115.704 19.4839C116.136 20.7783 115.602 20.9284 116.237 21.3869C116.307 21.4397 116.38 21.4924 116.449 21.5492C117.211 22.1579 117.516 23.2007 117.162 24.1056C116.242 26.4875 114.099 27.9807 114.099 27.9807Z" fill="#121B46"/>
<path d="M113 23.2533C113 23.793 113.215 24.2312 113.48 24.2312C113.745 24.2312 113.961 23.793 113.961 23.2533C113.961 22.7136 113.745 22.2754 113.48 22.2754C113.211 22.2754 113 22.7136 113 23.2533Z" fill="#121B46"/>
<path d="M109.807 23.2533C109.807 23.793 109.591 24.2312 109.326 24.2312C109.061 24.2312 108.845 23.793 108.845 23.2533C108.845 22.7136 109.061 22.2754 109.326 22.2754C109.591 22.2754 109.807 22.7136 109.807 23.2533Z" fill="#121B46"/>
<path d="M110.206 19.8652C109.982 19.6663 109.729 19.6014 109.465 19.5892C109.2 19.5852 108.931 19.6136 108.674 19.7029C108.414 19.78 108.178 19.926 107.978 20.1005C107.77 20.2669 107.624 20.4901 107.501 20.7092C107.44 20.8187 107.481 20.9567 107.591 21.0216C107.681 21.0703 107.787 21.0541 107.856 20.9892L107.876 20.9729C108.031 20.8309 108.182 20.697 108.349 20.5996C108.512 20.4901 108.691 20.4332 108.87 20.3846C109.053 20.344 109.241 20.3196 109.436 20.3318C109.627 20.3399 109.831 20.348 110.043 20.2953L110.104 20.2791C110.234 20.2466 110.312 20.1167 110.279 19.991C110.267 19.9382 110.238 19.8936 110.206 19.8652Z" fill="#121B46"/>
<path d="M112.601 19.8652C112.825 19.6663 113.077 19.6014 113.342 19.5892C113.606 19.5852 113.875 19.6136 114.132 19.7029C114.393 19.78 114.629 19.926 114.828 20.1005C115.036 20.2669 115.183 20.4901 115.305 20.7092C115.366 20.8187 115.325 20.9567 115.215 21.0216C115.126 21.0703 115.02 21.0541 114.95 20.9892L114.93 20.9729C114.775 20.8309 114.625 20.697 114.458 20.5996C114.299 20.4901 114.116 20.4332 113.936 20.3846C113.753 20.344 113.566 20.3196 113.37 20.3318C113.179 20.3399 112.975 20.348 112.763 20.2953L112.702 20.2791C112.572 20.2466 112.495 20.1167 112.527 19.991C112.539 19.9382 112.564 19.8936 112.601 19.8652Z" fill="#121B46"/>
<path d="M111.513 21.7603C111.599 22.1295 111.66 22.4947 111.729 22.8558C111.798 23.217 111.867 23.5781 111.969 23.919C111.994 24.0042 112.018 24.0894 112.051 24.1705C112.075 24.2355 112.136 24.3653 112.132 24.487C112.144 24.7305 111.99 24.9699 111.79 25.0673C111.586 25.1809 111.35 25.1647 111.163 25.0997C110.976 25.0308 110.809 24.9293 110.666 24.8035C111.008 24.9334 111.411 25.0348 111.656 24.8522C111.778 24.7589 111.843 24.6372 111.827 24.5033C111.819 24.4343 111.798 24.3896 111.753 24.2882C111.717 24.1949 111.684 24.1056 111.656 24.0123C111.55 23.639 111.497 23.2657 111.476 22.8883C111.456 22.5109 111.464 22.1336 111.513 21.7603Z" fill="#121B46"/>
<path d="M102.985 24.5275C102.981 24.3043 103.042 24.0527 103.241 23.8823C103.453 23.7119 103.755 23.724 103.983 23.8093C104.227 23.8945 104.423 24.0568 104.581 24.2434C104.74 24.4301 104.858 24.633 104.952 24.8683C104.985 24.9535 104.944 25.0469 104.862 25.0793C104.797 25.1037 104.728 25.0874 104.683 25.0428L104.671 25.0306C104.512 24.8683 104.313 24.6979 104.121 24.6451C104.027 24.6208 103.954 24.6249 103.889 24.6695C103.82 24.7182 103.767 24.8196 103.726 24.9251C103.641 25.1402 103.592 25.3918 103.775 25.4892C103.966 25.5987 104.251 25.5703 104.5 25.5378C104.264 25.6433 103.999 25.7286 103.702 25.6433C103.551 25.5947 103.429 25.4242 103.421 25.27C103.404 25.1158 103.429 24.9738 103.465 24.8359C103.506 24.6979 103.563 24.5559 103.698 24.4382C103.832 24.3165 104.048 24.2881 104.199 24.3368C104.508 24.4301 104.72 24.6086 104.915 24.8156L104.634 24.9819C104.484 24.6086 104.239 24.2191 103.881 24.0446C103.702 23.9594 103.49 23.9148 103.323 24.0121C103.152 24.0933 103.046 24.3124 102.985 24.5275Z" fill="#121B46"/>
<path d="M119.569 24.5275C119.573 24.3043 119.512 24.0527 119.312 23.8823C119.101 23.7119 118.799 23.724 118.571 23.8093C118.327 23.8945 118.131 24.0568 117.972 24.2434C117.814 24.4301 117.695 24.633 117.602 24.8683C117.569 24.9535 117.61 25.0469 117.691 25.0793C117.757 25.1037 117.826 25.0874 117.871 25.0428L117.883 25.0306C118.042 24.8683 118.241 24.6979 118.433 24.6451C118.526 24.6208 118.6 24.6249 118.665 24.6695C118.734 24.7182 118.783 24.8196 118.828 24.9251C118.913 25.1402 118.962 25.3918 118.779 25.4892C118.587 25.5987 118.302 25.5703 118.054 25.5378C118.29 25.6433 118.555 25.7286 118.852 25.6433C119.003 25.5947 119.125 25.4242 119.133 25.27C119.149 25.1158 119.125 24.9738 119.088 24.8359C119.048 24.6979 118.991 24.5559 118.856 24.4382C118.722 24.3165 118.506 24.2881 118.355 24.3368C118.046 24.4301 117.834 24.6086 117.638 24.8156L117.919 24.9819C118.07 24.6086 118.315 24.2191 118.673 24.0446C118.852 23.9594 119.064 23.9148 119.231 24.0121C119.402 24.0933 119.508 24.3124 119.569 24.5275Z" fill="#121B46"/>
<path d="M109.75 26.3291C109.75 26.3291 111.208 27.1406 112.873 26.3291C112.873 26.3291 111.533 29.5428 109.75 26.3291Z" fill="white"/>
<path d="M152.448 111.115C151.348 127.512 150.656 144.863 150.656 144.863L154.081 146.925L157.013 144.388L165.053 111.115H152.448Z" fill="#CC6F49"/>
<path d="M157.176 144.031C157.258 143.954 157.388 143.995 157.413 144.105C157.523 144.575 157.779 145.638 158.06 146.657C158.357 147.728 157.531 148.564 157.164 148.872C157.062 148.958 156.94 148.998 156.806 148.998L141.464 148.986C141.464 148.986 140.776 147.935 145.728 146.75C150.68 145.565 148.799 144.129 150.334 144.332C151.87 144.539 153.796 146.62 155.283 145.561C156.309 144.827 156.903 144.295 157.176 144.031Z" fill="#121B46"/>
<path d="M152.183 115.242C152.183 115.242 157.409 117.542 163.351 118.151C163.351 118.151 159.143 119.742 152.016 117.34L152.183 115.242Z" fill="#121B46"/>
<path d="M169.777 111.115L170.861 144.388L173.528 146.925L177.137 144.863C177.137 144.863 179.499 127.512 181.291 111.115H169.777Z" fill="#CC6F49"/>
<path d="M170.922 144.031C170.84 143.954 170.71 143.995 170.686 144.105C170.576 144.575 170.319 145.638 170.038 146.657C169.741 147.728 170.567 148.564 170.934 148.872C171.036 148.958 171.158 148.998 171.292 148.998L186.634 148.986C186.634 148.986 187.323 147.935 182.37 146.75C177.418 145.565 179.299 144.129 177.764 144.332C176.229 144.539 174.302 146.62 172.816 145.561C171.785 144.827 171.195 144.295 170.922 144.031Z" fill="#121B46"/>
<path d="M170.001 118.456C170.001 118.456 176.041 118.184 180.794 115.445L180.456 118.456C180.452 118.456 174.343 119.673 170.001 118.456Z" fill="#121B46"/>
<path d="M160.361 69.1177C160.361 69.1177 155.27 79.2619 154.049 88.3918C152.827 97.5216 152.114 115.173 152.114 115.173C152.114 115.173 168.71 122.578 181.336 115.173C181.336 115.173 186.834 79.2619 180.725 69.2191L160.361 69.1177Z" fill="#FDB32C"/>
<path d="M165.986 100.212C166.825 99.6074 167.623 99.0028 168.36 98.313C169.101 97.6354 169.769 96.8847 170.437 96.1016C170.042 97.0592 169.394 97.9032 168.637 98.6133C167.867 99.3112 166.975 99.8915 165.986 100.212Z" fill="#121B46"/>
<path d="M167.932 101.23C168.637 100.597 169.317 99.9887 169.948 99.3192C170.588 98.6578 171.166 97.9477 171.765 97.2173C171.443 98.11 170.893 98.9094 170.242 99.5992C169.582 100.281 168.808 100.869 167.932 101.23Z" fill="#121B46"/>
<path d="M161.481 71.3496C160.801 73.0741 160.141 74.8068 159.522 76.5516C158.895 78.2964 158.3 80.0493 157.759 81.8185C156.684 85.3568 155.718 88.9398 155.523 92.6404L154.484 103.706L153.93 109.236L153.336 114.763L153.735 109.216L154.175 103.673L155.12 92.5958C155.205 91.6747 155.283 90.7495 155.421 89.8244C155.559 88.9033 155.735 87.9862 155.95 87.0814C156.374 85.2716 156.875 83.4781 157.461 81.7171C158.626 78.199 159.966 74.7378 161.481 71.3496Z" fill="#121B46"/>
<path d="M183.246 71.3325C182.35 72.6188 181.788 73.4263 181.698 73.5561C181.694 73.5602 181.694 73.5602 181.694 73.5643C179.902 73.8848 178.619 74.6558 177.976 75.0616C177.479 75.374 177.507 75.7392 177.589 75.9542C177.63 76.0638 177.752 76.1044 177.854 76.0516C178.342 75.7879 179.36 75.443 179.662 75.7148C180 76.0232 176.734 78.8961 177.059 79.4358C177.19 79.6508 179.568 77.6707 179.568 77.6707C179.568 77.6707 177.414 80.2798 177.829 80.4177C178.245 80.5557 180.436 78.5106 180.436 78.5106C180.436 78.5106 178.595 81.3713 179.071 81.3348C179.548 81.2982 181.283 79.2937 181.283 79.2937C180.725 80.4096 180.651 80.9452 180.684 81.1968C180.7 81.3145 180.823 81.3632 180.908 81.278C181.959 80.2798 183.201 77.1918 183.698 75.8772L183.706 75.8893C184.765 75.2685 185.795 74.603 186.797 73.9051C185.612 73.053 184.411 72.2171 183.246 71.3325Z" fill="#CC6F49"/>
<path d="M177.772 43.1479C177.772 43.1479 180.419 42.7421 184.492 45.1768C188.565 47.6114 198.848 57.0456 198.645 60.5961C198.441 64.1466 185.103 75.711 185.103 75.711L182.15 72.0591L189.379 61.4076L179.434 52.152L177.772 43.1479Z" fill="white"/>
<path d="M174.412 41.3827C174.261 40.5103 174.151 39.5527 174.229 38.798V38.7939C174.265 38.4206 174.343 38.1001 174.485 37.8647L170.787 35.9819L166.89 37.2236C167.032 37.4589 167.191 38.4247 167.224 38.798L167.146 38.1569C167.224 38.9116 167.191 40.5103 167.04 41.3868C166.816 42.665 166.495 43.7565 166.495 43.7565H169.623H170.335H174.966C174.962 43.7484 174.636 42.6609 174.412 41.3827Z" fill="#CC6F49"/>
<path d="M167.146 38.1528C167.146 38.1528 169.663 39.9179 174.314 38.2908C174.314 38.2908 170.681 43.5618 167.146 38.1528Z" fill="#C4533A"/>
<path d="M160.43 67.4941C160.186 68.3909 160.023 69.7948 160.023 69.7948C172.478 72.4648 180.965 69.7948 180.965 69.7948C180.965 69.7948 181.238 69.5595 180.965 68.0703C180.692 66.5811 182.663 58.6361 183.172 56.5383C183.682 54.4405 183.751 48.4919 183.376 46.394C183.001 44.2962 179.507 43.0464 178.285 43.1803C177.063 43.3142 174.791 42.2349 174.791 42.2349C170.991 45.5825 166.747 42.2349 166.747 42.2349C166.747 42.2349 165.086 43.2168 162.096 43.3507C162.096 43.3507 157.311 46.2601 156.973 49.5063C156.627 52.7524 161.347 64.1465 160.43 67.4941Z" fill="white"/>
<path d="M165.008 60.3726C165.44 60.5795 165.904 60.685 166.373 60.6931C166.841 60.7134 167.309 60.6688 167.778 60.6038C168.71 60.4659 169.688 60.3158 170.665 60.4213C171.639 60.5227 172.563 60.7783 173.488 60.9203C173.952 60.9934 174.42 61.0299 174.889 61.0015C175.357 60.9853 175.821 60.8879 176.265 60.7093C175.862 60.9731 175.385 61.1151 174.909 61.2003C174.424 61.2693 173.936 61.2693 173.451 61.2328C172.482 61.1557 171.553 60.9122 170.624 60.827C169.7 60.7175 168.767 60.8473 167.806 60.9163C167.326 60.9447 166.837 60.9569 166.352 60.896C165.872 60.8148 165.395 60.6607 165.008 60.3726Z" fill="#121B46"/>
<path d="M166.54 42.4375C166.075 43.2328 165.652 44.0687 165.411 44.9492C165.297 45.3834 165.22 45.8419 165.314 46.2639C165.395 46.6819 165.721 47.0065 166.128 47.0755C166.535 47.1485 166.979 47.0308 167.395 46.8807C167.814 46.7224 168.217 46.5074 168.604 46.272C168.995 46.0367 169.37 45.7729 169.737 45.5011L170.282 45.0791L170.555 44.86L170.596 44.8315L170.629 44.8113L170.641 44.8031C170.657 44.795 170.69 44.7829 170.714 44.7788C170.677 44.584 171.072 45.1359 170.934 45.0426L170.938 45.0344C170.95 45.0101 170.954 44.9776 170.946 44.9573C170.938 44.9411 170.954 44.9736 170.958 44.9776C170.983 45.0223 171.007 45.0628 171.04 45.1115C171.516 45.8663 172.127 46.5723 172.828 47.1242C173.182 47.396 173.569 47.6314 173.984 47.749C174.192 47.8018 174.404 47.8464 174.616 47.8261C174.836 47.8383 175.015 47.7815 175.166 47.6598C175.463 47.4082 175.557 46.9334 175.581 46.4993C175.605 46.0489 175.561 45.5944 175.499 45.1399C175.373 44.231 175.145 43.3343 174.885 42.4456C175.235 43.3018 175.504 44.1945 175.695 45.1075C175.781 45.566 175.846 46.0326 175.838 46.5074C175.821 46.97 175.776 47.5056 175.369 47.8951C175.17 48.0818 174.876 48.171 174.632 48.167C174.379 48.1913 174.127 48.1467 173.891 48.0858C173.41 47.96 172.987 47.7044 172.604 47.4163C171.842 46.832 171.211 46.126 170.69 45.3225C170.657 45.2738 170.624 45.217 170.596 45.1562C170.588 45.1359 170.584 45.1399 170.567 45.0994C170.547 45.0507 170.543 44.9898 170.547 44.9411L170.551 44.9208C170.413 44.8234 170.808 45.3712 170.767 45.1765C170.791 45.1765 170.82 45.1643 170.832 45.1562H170.836C170.84 45.1521 170.836 45.1562 170.832 45.1602L170.804 45.1805L170.531 45.3915C170.348 45.5335 170.16 45.6756 169.969 45.8135C169.59 46.0894 169.199 46.3491 168.796 46.5885C168.389 46.8279 167.969 47.0471 167.517 47.2094C167.069 47.3717 166.572 47.4934 166.063 47.3798C165.546 47.2783 165.134 46.8117 165.061 46.3167C164.976 45.8216 165.081 45.3428 165.22 44.8965C165.534 44.0038 165.994 43.1882 166.54 42.4375Z" fill="#121B46"/>
<path d="M161.107 70.0299C161.184 69.5349 161.294 69.0439 161.416 68.557C161.485 68.3135 161.563 68.0741 161.652 67.8347C161.697 67.717 161.746 67.5953 161.803 67.4817C161.856 67.364 161.889 67.2626 161.929 67.153C162.17 66.2319 162.141 65.2256 162.064 64.2477C161.986 63.2657 161.811 62.2919 161.567 61.3343C161.445 60.8554 161.306 60.3807 161.119 59.9222C160.96 59.4515 160.728 59.0132 160.496 58.5669C161.127 59.35 161.55 60.2914 161.868 61.245C162.186 62.2067 162.381 63.2049 162.467 64.2112C162.532 65.2175 162.565 66.2481 162.222 67.2504C162.165 67.3681 162.108 67.502 162.051 67.6075C161.99 67.713 161.937 67.8225 161.884 67.9321C161.779 68.1553 161.689 68.3825 161.603 68.6178C161.42 69.0804 161.274 69.5592 161.107 70.0299Z" fill="#121B46"/>
<path d="M179.979 69.7947C179.788 69.2388 179.678 68.6504 179.682 68.0499C179.686 67.7496 179.727 67.4493 179.8 67.1572C179.878 66.8569 179.979 66.5891 180.049 66.3132C180.326 65.1851 180.566 64.0368 180.806 62.8925C181.055 61.7483 181.295 60.5999 181.56 59.4597L181.955 57.7474C182.101 57.1793 182.232 56.6071 182.386 56.0391C182.252 57.2077 182.065 58.3641 181.865 59.5206C181.67 60.677 181.442 61.8294 181.201 62.9777C180.949 64.1261 180.696 65.2703 180.342 66.4024C180.252 66.6905 180.126 66.9665 180.045 67.2302C179.955 67.498 179.902 67.7821 179.878 68.0661C179.808 68.6342 179.878 69.2185 179.979 69.7947Z" fill="#121B46"/>
<path d="M153.572 33.0687C153.462 33.024 153.352 33.0849 153.324 33.1985C153.189 33.7382 152.753 34.7161 152.346 34.7486C151.886 34.7891 151.98 30.4474 151.361 30.3216C151.112 30.2689 150.965 33.3568 150.965 33.3568C150.965 33.3568 150.497 30.0132 150.114 30.2202C149.727 30.4271 149.76 33.4217 149.76 33.4217C149.76 33.4217 148.892 30.1349 148.595 30.5083C148.298 30.8816 148.603 33.511 148.603 33.511C148.159 32.3464 147.809 31.9285 147.605 31.7824C147.508 31.7134 147.39 31.7743 147.39 31.8919C147.414 33.3365 148.856 36.3351 149.491 37.589H149.487H149.475C149.353 38.1489 149.247 38.7129 149.145 39.277C150.35 39.0944 151.548 38.8103 152.737 38.4817C152.639 38.0434 152.578 37.7756 152.562 37.6985C153.544 36.1647 153.837 34.6958 153.971 33.9492C154.073 33.3811 153.788 33.1539 153.572 33.0687Z" fill="#CC6F49"/>
<path d="M149.092 38.4816L152.859 38.3477L155.678 50.5532C155.678 50.5532 158.598 43.789 162.092 43.3508C165.587 42.9126 161.074 58.6362 161.074 58.6362C161.074 58.6362 157.409 63.8422 153.776 62.9658C150.143 62.0853 149.023 55.5929 148.856 53.9049C148.685 52.2129 149.092 38.4816 149.092 38.4816Z" fill="white"/>
<path d="M154.932 51.9087C155.075 51.3772 155.299 50.8781 155.543 50.3952L155.828 49.8271L155.91 50.4723C155.959 50.87 155.995 51.2717 156.007 51.6734C156.016 52.0751 156.012 52.4809 155.95 52.8907C155.808 52.5012 155.726 52.1035 155.657 51.7059C155.588 51.3082 155.547 50.9106 155.519 50.5088L155.885 50.5859C155.608 51.0445 155.307 51.4908 154.932 51.9087Z" fill="#121B46"/>
<path d="M159.477 60.3935C159.673 59.6956 159.982 59.0504 160.316 58.4215C160.663 57.7966 161.033 57.1879 161.514 56.6401C161.314 57.3462 161.009 57.9873 160.675 58.6122C160.333 59.2371 159.962 59.8417 159.477 60.3935Z" fill="#121B46"/>
<path d="M179.079 30.5652C178.859 29.8713 178.118 29.3195 177.377 29.498C177.703 19.8731 169.651 21.1675 169.651 21.1675C164.597 21.6058 164.019 26.9579 164.055 29.6847C163.892 29.5913 163.737 29.5183 163.652 29.498C162.911 29.3154 162.165 29.8713 161.946 30.5652C161.77 31.117 161.888 31.7419 162.206 32.2288C162.471 32.6346 162.899 33.012 163.355 33.1824C163.461 33.223 163.888 33.296 164.238 33.2838C165.02 39.5774 170.743 38.9565 170.743 38.9565C175.703 39.2 176.99 35.7509 177.279 33.2554C177.463 33.2311 177.617 33.2027 177.674 33.1783C178.13 33.0039 178.558 32.6265 178.823 32.2248C179.136 31.7419 179.255 31.117 179.079 30.5652Z" fill="#CC6F49"/>
<path d="M173.15 32.9713C173.15 33.8599 173.874 34.5822 174.766 34.5822C175.658 34.5822 176.383 33.8599 176.383 32.9713C176.383 32.0826 175.658 31.3604 174.766 31.3604C173.874 31.3563 173.15 32.0786 173.15 32.9713Z" fill="#C4533A"/>
<path d="M165.094 32.9713C165.094 33.8599 165.819 34.5822 166.711 34.5822C167.602 34.5822 168.327 33.8599 168.327 32.9713C168.327 32.0826 167.602 31.3604 166.711 31.3604C165.819 31.3563 165.094 32.0786 165.094 32.9713Z" fill="#C4533A"/>
<path d="M172.294 29.8427C172.294 30.3702 172.502 30.7963 172.763 30.7963C173.019 30.7963 173.231 30.3702 173.231 29.8427C173.231 29.3152 173.023 28.8892 172.763 28.8892C172.506 28.8892 172.294 29.3152 172.294 29.8427Z" fill="#121B46"/>
<path d="M173.716 28.5891C173.638 28.7433 173.532 28.8772 173.398 28.9949C173.268 29.1125 173.097 29.2018 172.909 29.2464H172.901C172.807 29.2667 172.714 29.2099 172.693 29.1166C172.673 29.0233 172.73 28.9299 172.824 28.9097C172.84 28.9056 172.856 28.9056 172.869 28.9056C173.129 28.9178 173.418 28.7555 173.618 28.5282L173.622 28.5242C173.642 28.4998 173.679 28.4998 173.699 28.5201C173.724 28.5363 173.728 28.5647 173.716 28.5891Z" fill="#121B46"/>
<path d="M169.183 29.8432C169.183 30.3707 168.975 30.7968 168.714 30.7968C168.458 30.7968 168.246 30.3707 168.246 29.8432C168.246 29.3157 168.454 28.8896 168.714 28.8896C168.975 28.8896 169.183 29.3157 169.183 29.8432Z" fill="#121B46"/>
<path d="M167.859 28.5298C168.059 28.7611 168.348 28.9193 168.608 28.9071C168.702 28.9031 168.784 28.9761 168.788 29.0735C168.792 29.1668 168.718 29.248 168.621 29.252C168.604 29.252 168.592 29.252 168.576 29.248L168.568 29.2439C168.38 29.1993 168.209 29.11 168.079 28.9923C167.945 28.8747 167.843 28.7408 167.761 28.5866C167.749 28.5582 167.757 28.5257 167.786 28.5135C167.81 28.5014 167.839 28.5095 167.859 28.5298Z" fill="#121B46"/>
<path d="M172.494 32.7236C172.331 33.0361 172.087 33.3079 171.789 33.523C171.496 33.734 171.125 33.872 170.743 33.8679C170.364 33.8598 169.993 33.7299 169.7 33.5108C169.549 33.4094 169.427 33.2714 169.297 33.1537C169.187 33.0117 169.081 32.8697 168.983 32.7236C169.126 32.8291 169.26 32.9427 169.39 33.0482C169.537 33.1375 169.667 33.2471 169.818 33.3201C170.107 33.4865 170.425 33.5758 170.743 33.5798C171.06 33.5879 171.378 33.4865 171.671 33.3282C171.964 33.174 172.237 32.9671 172.494 32.7236Z" fill="#121B46"/>
<path d="M171.231 34.4155C171.097 34.5332 170.914 34.5778 170.739 34.5819C170.563 34.5778 170.38 34.5291 170.246 34.4155C170.417 34.4439 170.576 34.4764 170.739 34.4723C170.901 34.4764 171.06 34.448 171.231 34.4155Z" fill="#121B46"/>
<path d="M169.57 26.5358C169.35 26.341 169.105 26.2801 168.845 26.268C168.588 26.2639 168.323 26.2923 168.075 26.3775C167.822 26.4546 167.59 26.5966 167.395 26.7671C167.191 26.9294 167.049 27.1444 166.931 27.3595C166.869 27.469 166.91 27.6029 167.016 27.6638C167.102 27.7125 167.207 27.6963 167.277 27.6313L167.297 27.6151C167.448 27.4772 167.594 27.3432 167.757 27.2499C167.916 27.1444 168.091 27.0876 168.266 27.043C168.446 27.0024 168.629 26.9781 168.82 26.9902C169.008 26.9983 169.207 27.0065 169.411 26.9578L169.472 26.9415C169.598 26.9091 169.675 26.7833 169.643 26.6575C169.631 26.6088 169.606 26.5682 169.57 26.5358Z" fill="#450D20"/>
<path d="M171.907 26.5358C172.127 26.341 172.372 26.2801 172.632 26.268C172.889 26.2639 173.154 26.2923 173.402 26.3775C173.655 26.4546 173.887 26.5966 174.082 26.7671C174.286 26.9294 174.428 27.1444 174.546 27.3595C174.608 27.469 174.567 27.6029 174.461 27.6638C174.375 27.7125 174.27 27.6963 174.2 27.6313L174.18 27.6151C174.029 27.4772 173.883 27.3432 173.72 27.2499C173.561 27.1444 173.386 27.0876 173.211 27.043C173.031 27.0024 172.848 26.9781 172.657 26.9902C172.469 26.9983 172.27 27.0065 172.066 26.9578L172.005 26.9415C171.879 26.9091 171.801 26.7833 171.834 26.6575C171.846 26.6088 171.875 26.5682 171.907 26.5358Z" fill="#450D20"/>
<path d="M170.848 28.3862C170.93 28.7433 170.991 29.1004 171.06 29.4534C171.129 29.8064 171.195 30.1554 171.296 30.4922C171.321 30.5774 171.345 30.6585 171.374 30.7397C171.398 30.8046 171.455 30.9304 171.455 31.0481C171.467 31.2875 171.313 31.5188 171.121 31.6121C170.922 31.7217 170.694 31.7054 170.51 31.6446C170.327 31.5796 170.164 31.4782 170.026 31.3565C170.36 31.4823 170.755 31.5796 170.991 31.4011C171.109 31.3118 171.174 31.1901 171.158 31.0603C171.154 30.9953 171.129 30.9507 171.089 30.8493C171.052 30.76 171.019 30.6707 170.995 30.5815C170.893 30.2203 170.84 29.8511 170.82 29.4859C170.791 29.1166 170.8 28.7514 170.848 28.3862Z" fill="#121B46"/>
<path d="M162.532 31.0803C162.528 30.8612 162.589 30.6177 162.78 30.4513C162.988 30.285 163.281 30.2972 163.501 30.3824C163.737 30.4635 163.933 30.6258 164.084 30.8044C164.238 30.987 164.352 31.1858 164.446 31.413C164.479 31.4942 164.438 31.5875 164.357 31.62C164.295 31.6443 164.226 31.6281 164.181 31.5834L164.169 31.5713C164.014 31.413 163.819 31.2467 163.632 31.1939C163.538 31.1696 163.469 31.1736 163.408 31.2183C163.342 31.2629 163.29 31.3643 163.249 31.4658C163.167 31.6727 163.118 31.9202 163.298 32.0176C163.485 32.1231 163.762 32.0988 164.006 32.0663C163.774 32.1678 163.518 32.253 163.228 32.1718C163.082 32.1231 162.964 31.9568 162.956 31.8066C162.943 31.6565 162.964 31.5185 163 31.3846C163.041 31.2507 163.094 31.1128 163.228 30.9951C163.363 30.8774 163.571 30.849 163.717 30.8936C164.019 30.9829 164.226 31.1574 164.414 31.3603L164.141 31.5226C163.994 31.1574 163.754 30.776 163.408 30.6055C163.232 30.5244 163.029 30.4797 162.862 30.5731C162.695 30.6623 162.589 30.8733 162.532 31.0803Z" fill="#121B46"/>
<path d="M178.701 31.0803C178.705 30.8612 178.644 30.6177 178.452 30.4513C178.245 30.285 177.951 30.2972 177.731 30.3824C177.495 30.4635 177.3 30.6258 177.149 30.8044C176.994 30.987 176.88 31.1858 176.786 31.413C176.754 31.4942 176.795 31.5875 176.876 31.62C176.937 31.6443 177.006 31.6281 177.051 31.5834L177.063 31.5713C177.218 31.413 177.414 31.2467 177.601 31.1939C177.695 31.1696 177.764 31.1736 177.825 31.2183C177.89 31.2629 177.943 31.3643 177.984 31.4658C178.065 31.6727 178.114 31.9202 177.935 32.0176C177.748 32.1231 177.471 32.0988 177.226 32.0663C177.458 32.1678 177.715 32.253 178.004 32.1718C178.151 32.1231 178.269 31.9568 178.277 31.8066C178.289 31.6565 178.269 31.5185 178.232 31.3846C178.192 31.2507 178.139 31.1128 178.004 30.9951C177.87 30.8774 177.662 30.849 177.515 30.8936C177.214 30.9829 177.006 31.1574 176.819 31.3603L177.092 31.5226C177.239 31.1574 177.479 30.776 177.825 30.6055C178 30.5244 178.204 30.4797 178.371 30.5731C178.538 30.6623 178.644 30.8733 178.701 31.0803Z" fill="#121B46"/>
<path d="M182.435 34.2618C182.57 32.6347 181.523 31.1658 180.472 29.912C179.426 28.6582 178.269 27.3313 178.114 25.7082C178.029 24.7912 178.277 23.8579 178.098 22.953C177.805 21.4435 176.404 20.3885 174.97 19.8164C172.775 18.9399 170.262 18.871 168.018 19.6257C165.778 20.3764 164.165 22.4336 162.638 24.2393C160.728 26.4994 160.105 29.7781 161.058 32.582C161.4 33.5842 161.929 34.5337 162.129 35.5765C162.353 36.7614 162.137 37.9828 161.893 39.1636C161.652 40.3444 161.383 41.5495 161.506 42.7465C161.53 42.994 161.575 43.2416 161.644 43.485C161.917 43.3917 162.092 43.3511 162.092 43.3511C165.077 43.2172 166.743 42.2352 166.743 42.2352C166.743 42.2352 166.78 42.2637 166.853 42.3164C166.918 42.0283 166.983 41.7077 167.04 41.3791C167.179 40.5716 167.22 39.1352 167.163 38.3317C167.163 38.3236 167.163 38.3155 167.159 38.3074C167.155 38.2627 167.146 38.2141 167.138 38.1694C165.819 37.4228 164.568 35.9945 164.23 33.2839C163.884 33.2961 163.456 33.2231 163.355 33.1825C162.899 33.0121 162.471 32.6347 162.206 32.2289C161.889 31.742 161.77 31.1171 161.946 30.5653C162.17 29.8714 162.911 29.3155 163.652 29.4981C163.725 29.5184 163.843 29.5711 163.978 29.6442C164.043 29.7903 164.104 29.9363 164.173 30.0824C164.324 30.3746 164.54 30.6992 164.87 30.7154C165.204 30.7316 165.452 30.4233 165.627 30.1392C166.035 29.4738 166.352 28.7555 166.576 28.0089C166.743 27.449 166.853 26.8768 167.045 26.325C167.236 25.7731 167.513 25.2375 167.949 24.848C168.527 24.3367 169.431 24.1257 170.181 24.3286C170.026 24.9088 170.246 25.5499 170.657 25.9922C171.068 26.4345 171.643 26.6902 172.233 26.8159C172.824 26.9417 173.431 26.9458 174.033 26.9417C174.567 26.9377 175.178 26.962 175.528 27.3637C175.813 27.6924 175.829 28.1712 175.776 28.6013C175.719 29.0315 175.609 29.4656 175.687 29.8958C175.74 30.1879 175.952 30.5044 176.249 30.4963C176.457 30.4882 176.619 30.3299 176.762 30.1838C176.982 29.9566 177.206 29.7294 177.426 29.4981C178.147 29.3561 178.855 29.8998 179.071 30.5734C179.246 31.1252 179.128 31.7501 178.811 32.2371C178.55 32.6428 178.122 33.0202 177.662 33.1906C177.605 33.2109 177.454 33.2434 177.267 33.2637C177.072 35.0004 176.383 37.2037 174.306 38.2952C174.265 38.4494 174.237 38.6198 174.221 38.7984V38.8024C174.147 39.5572 174.253 40.5148 174.404 41.3872C174.469 41.7443 174.538 42.0851 174.604 42.3894C174.661 42.3448 174.722 42.2961 174.779 42.2434C174.779 42.2434 177.051 43.3268 178.273 43.1888C178.827 43.1279 179.849 43.3511 180.835 43.8137C180.831 43.5134 180.794 43.2132 180.745 42.9251C180.55 41.7848 180.151 40.6406 180.313 39.4922C180.586 37.6135 182.285 36.1487 182.435 34.2618Z" fill="#450D20"/>
<path d="M231.32 42.5601C231.32 42.5601 230.029 43.542 228.673 44.0127C227.317 44.4875 222.291 46.0416 221.818 49.3567C221.342 52.6719 219.953 82.8004 219.953 82.8004H228.913L232.273 44.2521L231.32 42.5601Z" fill="#FF5C5B"/>
<path d="M210.957 66.456C209.12 65.547 207.417 65.3888 206.566 65.3239C205.927 65.2752 205.711 65.5917 205.638 65.823C205.601 65.9406 205.678 66.0502 205.805 66.0664C206.407 66.1516 207.527 66.4965 207.609 66.9104C207.702 67.3771 202.937 67.726 202.868 68.3753C202.84 68.6349 206.236 68.4726 206.236 68.4726C206.236 68.4726 202.624 69.2923 202.893 69.6656C203.161 70.0389 206.436 69.7062 206.436 69.7062C206.436 69.7062 202.929 70.9316 203.369 71.1994C203.813 71.4672 206.66 70.8829 206.66 70.8829C205.43 71.4591 205.014 71.8568 204.876 72.084C204.811 72.1895 204.888 72.3072 205.018 72.2909C206.619 72.1165 209.824 70.2783 211.091 69.5195C211.755 69.8888 212.439 70.2337 213.131 70.5583V66.3342C211.979 66.3992 211.213 66.4397 210.957 66.456Z" fill="#ED8D5D"/>
<path d="M211.6 66.249C211.6 66.249 211.396 70.6638 211.6 71.1183C211.804 71.5727 224.176 75.0745 227.944 73.5529C231.711 72.0312 232.933 55.9505 232.526 53.1629C232.118 50.3752 228.046 45.5547 227.129 45.5547C226.213 45.5547 222.649 46.3662 221.884 49.7138C221.118 53.0614 220.56 65.896 220.56 65.896L211.6 66.249Z" fill="#FF5C5B"/>
<path d="M216.728 138.594C216.658 141.146 216.601 143.402 216.561 145.232L221.24 146.368L223.786 145.07L225.125 138.594H216.728Z" fill="#ED8D5D"/>
<path d="M216.447 143.986C216.447 143.986 215.037 145.329 213.811 145.881C212.586 146.429 207.067 146.125 207.438 148.876H220.189L221.322 147.748V149.002H223.867C223.867 149.002 224.849 146.194 223.928 144.481C223.928 144.481 222.087 146.129 220.067 145.398C218.043 144.66 216.447 143.986 216.447 143.986Z" fill="#121B46"/>
<path d="M235.014 138.594L235.226 144.83L239.429 146.644L242.202 144.912C242.394 143.183 242.638 141.032 242.919 138.594H235.014Z" fill="#ED8D5D"/>
<path d="M234.945 143.986C234.945 143.986 233.536 145.329 232.31 145.881C231.084 146.429 225.565 146.125 225.936 148.876H238.688L239.82 147.748V149.002H242.365C242.365 149.002 243.347 146.194 242.426 144.481C242.426 144.481 240.585 146.129 238.565 145.398C236.537 144.66 234.945 143.986 234.945 143.986Z" fill="#121B46"/>
<path d="M223.411 74.1084H246.931C246.931 74.1084 249.069 83.2382 248.56 89.9335C248.051 96.6287 242.858 143.089 242.858 143.089H234.509L233.593 95.5128L224.633 142.684H216.182C216.182 142.684 215.265 90.745 223.411 74.1084Z" fill="#121B46"/>
<path d="M230.404 74.6157L230.314 77.1234L230.208 79.627L229.964 84.6342L229.956 84.5652L231.878 89.8321C232.522 91.5851 233.136 93.3542 233.764 95.1112L233.405 95.1721C233.409 93.1432 233.434 91.1144 233.462 89.0855C233.487 87.0567 233.532 85.0278 233.589 82.999C233.646 85.0278 233.69 87.0567 233.715 89.0855C233.743 91.1144 233.772 93.1432 233.772 95.1721V96.219L233.413 95.2329C232.778 93.476 232.122 91.7271 231.499 89.962L229.622 84.6788L229.61 84.6423L229.614 84.6099L229.98 79.6108L230.18 77.1112L230.404 74.6157Z" fill="white"/>
<path d="M246.153 83.0718C246.414 85.5389 246.601 88.0141 246.589 90.5055C246.58 91.1263 246.528 91.7512 246.475 92.368L246.32 94.2224L246.01 97.9311L244.707 112.758L243.31 127.577L242.581 134.982L241.807 142.383L242.382 134.962L243.001 127.544L244.304 112.717L245.701 97.8987L246.067 94.194C246.177 92.9604 246.34 91.7228 246.393 90.4933C246.471 88.0262 246.32 85.5429 246.153 83.0718Z" fill="white"/>
<path d="M231.625 89.9702C230.99 94.3241 230.31 98.67 229.626 103.016L227.516 116.041L225.317 129.05L224.185 135.55L223.008 142.043L223.985 135.518L225.007 129.001L227.117 115.976L229.32 102.967C230.066 98.6294 230.823 94.2957 231.625 89.9702Z" fill="white"/>
<path d="M239.592 45.7247C238.309 42.4907 239.433 35.7305 239.575 34.8987C239.584 34.8703 239.584 34.8419 239.592 34.8135L230.892 39.6868C231.039 39.9303 231.121 40.2589 231.157 40.6404V40.6444C231.235 41.4154 231.125 42.4014 230.97 43.2981C230.738 44.6088 230.408 45.7287 230.408 45.7287H239.592V45.7247Z" fill="#ED8D5D"/>
<path d="M230.966 43.2943C235.694 43.8908 238.089 38.2628 238.179 38.0518C237.307 39.4314 236.04 40.1293 234.802 40.4661C233.279 40.88 231.805 40.742 231.182 40.6487C231.173 40.6446 231.161 40.6446 231.153 40.6406C231.235 41.4156 231.125 42.4016 230.966 43.2943Z" fill="#E6794E"/>
<path d="M230.64 43.3711C230.64 43.3711 231.813 45.6556 232.88 45.5014C233.947 45.3472 239.246 42.5596 239.246 42.5596C239.246 42.5596 241.437 44.1867 243.677 44.3125C245.917 44.4383 249.529 46.3129 249.733 51.8436C249.936 57.3743 246.984 68.2286 247.696 72.4365C247.696 72.4365 248.002 73.9581 246.931 74.1123H223.411C223.411 74.1123 222.645 73.248 223.052 72.2336C223.46 71.2192 222.543 58.9446 222.185 56.1042C221.827 53.2638 221.065 48.496 223.765 47.0231C226.465 45.5501 229.724 44.8441 230.64 43.3711Z" fill="white"/>
<path d="M229.418 44.7427C229.414 45.2255 229.418 45.7084 229.438 46.1832C229.451 46.4185 229.467 46.6539 229.516 46.873C229.536 46.9825 229.573 47.084 229.61 47.157C229.634 47.1773 229.642 47.2017 229.646 47.1895C229.654 47.1935 229.703 47.1935 229.744 47.1895C230.139 47.1164 230.583 46.8608 230.994 46.6457C231.41 46.4145 231.825 46.175 232.228 45.9235L232.383 45.8301L232.464 45.9762C232.64 46.2846 232.823 46.5889 233.014 46.8892C233.112 47.0393 233.206 47.1895 233.316 47.3274C233.426 47.4613 233.532 47.6115 233.699 47.6845C233.511 47.6602 233.365 47.5222 233.23 47.4045C233.092 47.2828 232.965 47.1489 232.847 47.015C232.607 46.7391 232.391 46.451 232.183 46.1507L232.42 46.1994C232.025 46.4875 231.617 46.7512 231.194 46.9947C230.982 47.1164 230.766 47.2301 230.538 47.3315C230.306 47.4289 230.082 47.5344 229.789 47.5668C229.711 47.5709 229.634 47.575 229.528 47.5384C229.41 47.4979 229.353 47.4045 229.304 47.3356C229.239 47.1935 229.206 47.0596 229.194 46.9298C229.166 46.6741 229.17 46.4266 229.186 46.1832C229.219 45.6922 229.3 45.2134 229.418 44.7427Z" fill="#121B46"/>
<path d="M227.679 54.9233H202.929V71.0933H227.679V54.9233Z" fill="#121B46"/>
<path d="M241.799 71.0933H202.929V72.3877H241.799V71.0933Z" fill="#121B46"/>
<path d="M241.799 71.0933H227.679V72.3877H241.799V71.0933Z" fill="#121B46"/>
<path d="M227.679 54.9233H226.706V71.0933H227.679V54.9233Z" fill="#121B46"/>
<path d="M216.829 62.9169C216.833 63.4322 216.63 63.9435 216.271 64.3249C215.917 64.7104 215.404 64.9579 214.858 64.9823C214.316 65.0107 213.754 64.8119 213.343 64.4304C212.932 64.049 212.687 63.4891 212.687 62.921C212.687 62.3529 212.932 61.7929 213.343 61.4115C213.754 61.026 214.316 60.8312 214.858 60.8597C215.404 60.884 215.917 61.1315 216.271 61.517C216.63 61.8903 216.833 62.4016 216.829 62.9169ZM216.829 62.9169C216.829 62.4016 216.609 61.8944 216.231 61.5495C215.856 61.2046 215.347 61.0301 214.858 61.0585C213.856 61.095 213.07 61.9918 213.095 62.9169C213.074 63.8421 213.856 64.7388 214.858 64.7753C215.347 64.7997 215.856 64.6293 216.231 64.2803C216.605 63.9395 216.825 63.4322 216.829 62.9169Z" fill="white"/>
<path d="M239.246 42.5596C239.246 42.5596 233.491 46.313 233.796 50.4721C234.102 54.6313 233.491 82.7309 233.491 82.7309H247.945C248.507 82.7309 248.963 82.2764 248.959 81.7165C248.935 77.8089 248.922 63.7652 249.883 60.1092C251.003 55.8486 251.105 47.6317 248.458 45.7043C245.811 43.7769 241.331 43.8783 239.246 42.5596Z" fill="#FF5C5B"/>
<path d="M233.678 72.53C233.678 72.53 246.898 71.6414 249.073 71.0327L233.662 73.9624L233.678 72.53Z" fill="#121B46"/>
<path d="M234.407 80.905C235.527 80.8198 236.647 80.7833 237.767 80.7508C238.887 80.7143 240.007 80.7103 241.127 80.7021C242.247 80.7062 243.367 80.7103 244.487 80.7508L246.169 80.8076C246.731 80.8401 247.289 80.8604 247.851 80.9091C247.289 80.9537 246.731 80.974 246.169 81.0105L244.487 81.0673C243.367 81.1039 242.247 81.1079 241.127 81.116C240.007 81.112 238.887 81.1039 237.767 81.0673C236.647 81.0308 235.527 80.9902 234.407 80.905Z" fill="#121B46"/>
<path d="M230.978 67.2222C230.282 67.4819 229.817 67.6523 229.638 67.7213C229.581 67.7416 229.548 67.7537 229.548 67.7537L230.636 70.5982C230.925 70.6591 231.218 70.7118 231.511 70.7605C231.324 69.5838 231.149 68.403 230.978 67.2222Z" fill="#D17558"/>
<path d="M231.104 70.1356C231.104 70.1356 227.598 74.2501 225.732 75.0698C225.614 75.1225 225.504 75.0333 225.533 74.9115C225.598 74.6559 225.875 74.1487 226.873 73.2316C226.873 73.2316 224.331 74.6397 223.83 74.5179C223.329 74.3962 226.307 72.1766 226.307 72.1766C226.307 72.1766 223.285 73.4751 222.914 73.1992C222.543 72.9233 225.745 71.0608 225.745 71.0608C225.745 71.0608 222.556 72.2294 222.503 71.9738C222.376 71.3326 226.812 69.5757 226.583 69.1618C226.38 68.7925 225.207 68.7966 224.608 68.894C224.482 68.9142 224.376 68.8331 224.376 68.7114C224.376 68.4679 224.486 68.1027 225.113 67.9566C226.078 67.7335 228.168 67.283 230.632 67.9282L231.104 70.1356Z" fill="#ED8D5D"/>
<path d="M248.763 46.1099C248.763 46.1099 258.64 60.4133 258.945 63.8623C259.251 67.3114 258.436 69.3402 249.476 70.9633C240.516 72.5864 231.149 72.5864 231.149 72.5864L230.029 66.8042L243.876 61.4277C243.876 61.4277 238.174 53.1094 238.378 51.2834C238.582 49.4575 248.763 46.1099 248.763 46.1099Z" fill="#FF5C5B"/>
<path d="M240.789 54.4648C241.172 55.0329 241.538 55.6091 241.913 56.1813C242.288 56.7534 242.646 57.3377 243.013 57.9139C243.375 58.4941 243.746 59.0663 244.1 59.6506L245.167 61.3995L245.289 61.5983L245.065 61.6754C244.141 61.9919 243.216 62.3125 242.284 62.6087L239.494 63.5176C237.629 64.1019 235.759 64.6862 233.874 65.2137C235.698 64.5036 237.539 63.8463 239.384 63.1889L242.162 62.2394C243.086 61.9189 244.015 61.6186 244.947 61.3143L244.846 61.5902L243.807 59.8251C243.457 59.2367 243.127 58.6402 242.789 58.0478C242.455 57.4513 242.109 56.863 241.783 56.2624C241.441 55.6659 241.107 55.0694 240.789 54.4648Z" fill="#121B46"/>
<path d="M246.422 60.2104C246.291 60.5432 246.08 60.7826 245.847 61.0017C245.607 61.2127 245.342 61.3994 244.996 61.4927C245.127 61.16 245.338 60.9165 245.57 60.7014C245.815 60.4945 246.08 60.3078 246.422 60.2104Z" fill="#121B46"/>
<path d="M239.567 51.3525C239.4 50.7763 239.331 50.1717 239.343 49.5671C239.351 48.9625 239.453 48.3538 239.637 47.7695C239.836 47.1893 240.15 46.6415 240.561 46.183C240.968 45.7123 241.522 45.4079 242.076 45.1929C241.591 45.5499 241.143 45.9192 240.805 46.3858C240.471 46.8484 240.203 47.3556 240.023 47.8994C239.844 48.4431 239.73 49.0112 239.657 49.5874C239.596 50.1676 239.555 50.756 239.567 51.3525Z" fill="#121B46"/>
<path d="M242.007 32.2044C241.779 31.4943 241.017 30.9222 240.256 31.1088C240.203 31.121 240.121 31.1575 240.032 31.1981C240.133 28.7107 239.771 25.988 238.036 24.4826C234.301 21.2486 228.946 22.3807 227.809 25.2901C226.51 28.6174 226.445 32.736 226.486 36.2581C226.49 36.7206 226.506 37.1913 226.661 37.6255C227.255 39.2973 229.646 40.3279 231.263 40.6647C233.34 41.0948 235.429 40.5511 237.063 39.204C238.358 38.1327 239.193 36.6233 239.551 34.988C239.922 35.0205 240.447 34.9312 240.565 34.8866C241.033 34.708 241.473 34.3225 241.742 33.9086C242.064 33.4095 242.186 32.7684 242.007 32.2044Z" fill="#ED8D5D"/>
<path d="M229.202 31.1376C229.202 31.6773 228.986 32.1155 228.722 32.1155C228.457 32.1155 228.241 31.6773 228.241 31.1376C228.241 30.5979 228.457 30.1597 228.722 30.1597C228.99 30.1597 229.202 30.5979 229.202 31.1376Z" fill="#121B46"/>
<path d="M232.395 31.1376C232.395 31.6773 232.611 32.1155 232.876 32.1155C233.141 32.1155 233.356 31.6773 233.356 31.1376C233.356 30.5979 233.141 30.1597 232.876 30.1597C232.611 30.1597 232.395 30.5979 232.395 31.1376Z" fill="#121B46"/>
<path d="M228.999 34.0952C229.166 34.4158 229.418 34.6958 229.719 34.9149C230.021 35.134 230.4 35.2719 230.791 35.2679C231.177 35.2598 231.56 35.1259 231.858 34.9027C232.012 34.8013 232.135 34.6592 232.273 34.5375C232.387 34.3914 232.497 34.2494 232.595 34.0993C232.448 34.2088 232.31 34.3224 232.175 34.432C232.025 34.5213 231.89 34.6349 231.735 34.712C231.438 34.8824 231.112 34.9757 230.787 34.9798C230.461 34.9879 230.135 34.8865 229.834 34.7242C229.544 34.5537 229.263 34.3427 228.999 34.0952Z" fill="#121B46"/>
<path d="M230.294 35.8276C230.432 35.9494 230.62 35.994 230.799 35.9981C230.982 35.994 231.165 35.9453 231.304 35.8276C231.129 35.856 230.966 35.8885 230.799 35.8844C230.632 35.8885 230.469 35.8601 230.294 35.8276Z" fill="#121B46"/>
<path d="M231.996 27.745C232.22 27.5462 232.473 27.4813 232.737 27.4691C233.002 27.4651 233.271 27.4935 233.527 27.5827C233.788 27.6598 234.024 27.8059 234.224 27.9804C234.432 28.1468 234.578 28.3699 234.7 28.5891C234.762 28.6986 234.721 28.8366 234.611 28.9015C234.521 28.9502 234.415 28.934 234.346 28.869L234.326 28.8528C234.171 28.7108 234.02 28.5769 233.853 28.4795C233.69 28.3699 233.511 28.3131 233.332 28.2644C233.149 28.2239 232.961 28.1995 232.766 28.2117C232.574 28.2198 232.371 28.2279 232.159 28.1752L232.098 28.1589C231.968 28.1265 231.89 27.9966 231.923 27.8708C231.935 27.8181 231.964 27.7775 231.996 27.745Z" fill="#121B46"/>
<path d="M229.601 27.745C229.377 27.5462 229.125 27.4813 228.86 27.4691C228.595 27.4651 228.327 27.4935 228.07 27.5827C227.809 27.6598 227.573 27.8059 227.374 27.9804C227.166 28.1468 227.019 28.3699 226.897 28.5891C226.836 28.6986 226.877 28.8366 226.987 28.9015C227.076 28.9502 227.182 28.934 227.251 28.869L227.272 28.8528C227.427 28.7108 227.577 28.5769 227.744 28.4795C227.903 28.3699 228.086 28.3131 228.265 28.2644C228.449 28.2239 228.636 28.1995 228.832 28.2117C229.023 28.2198 229.227 28.2279 229.438 28.1752L229.5 28.1589C229.63 28.1265 229.707 27.9966 229.675 27.8708C229.662 27.8181 229.638 27.7775 229.601 27.745Z" fill="#121B46"/>
<path d="M229.834 29.5508C229.748 29.92 229.687 30.2852 229.618 30.6464C229.548 31.0075 229.479 31.3686 229.377 31.7095C229.353 31.7947 229.329 31.8799 229.296 31.9611C229.271 32.026 229.21 32.1558 229.214 32.2776C229.202 32.521 229.357 32.7604 229.557 32.8578C229.76 32.9714 229.996 32.9552 230.184 32.8903C230.371 32.8213 230.538 32.7199 230.681 32.5941C230.339 32.7239 229.935 32.8254 229.691 32.6428C229.569 32.5494 229.504 32.4277 229.52 32.2938C229.528 32.2248 229.548 32.1802 229.593 32.0787C229.63 31.9854 229.662 31.8961 229.691 31.8028C229.797 31.4295 229.85 31.0562 229.87 30.6788C229.891 30.3015 229.882 29.9281 229.834 29.5508Z" fill="#121B46"/>
<path d="M241.445 32.6388C241.449 32.4156 241.388 32.1641 241.188 31.9936C240.976 31.8232 240.675 31.8354 240.447 31.9206C240.203 32.0058 240.007 32.1681 239.848 32.3548C239.689 32.5414 239.571 32.7443 239.478 32.9797C239.445 33.0649 239.486 33.1582 239.567 33.1907C239.632 33.215 239.702 33.1988 239.746 33.1541L239.759 33.142C239.918 32.9797 240.117 32.8092 240.309 32.7565C240.402 32.7321 240.475 32.7362 240.541 32.7808C240.61 32.8295 240.663 32.931 240.704 33.0365C240.789 33.2515 240.838 33.5031 240.655 33.6005C240.463 33.71 240.178 33.6816 239.93 33.6492C240.166 33.7547 240.431 33.8399 240.728 33.7547C240.879 33.706 241.001 33.5356 241.009 33.3814C241.025 33.2272 241.001 33.0852 240.964 32.9472C240.923 32.8092 240.866 32.6672 240.732 32.5495C240.598 32.4278 240.382 32.3994 240.231 32.4481C239.922 32.5414 239.71 32.72 239.514 32.9269L239.795 33.0933C239.946 32.72 240.19 32.3304 240.549 32.1559C240.728 32.0707 240.94 32.0261 241.107 32.1235C241.278 32.2087 241.384 32.4237 241.445 32.6388Z" fill="#121B46"/>
<path d="M242.52 30.4719C242.276 28.6378 241.355 26.7145 239.771 25.7528C240.023 24.43 239.14 23.0909 237.963 22.4336C236.786 21.7762 235.381 21.6789 234.028 21.7154C232.68 21.7519 231.324 21.9101 229.988 21.7113C229.276 21.6018 228.567 21.3948 227.85 21.48C226.693 21.6139 225.74 22.5026 225.203 23.5332C224.531 24.8195 224.396 26.3736 224.844 27.7532C225.26 29.0436 226.152 30.196 226.583 31.4498C226.632 30.7275 226.706 30.0053 226.808 29.2952C226.938 29.2546 227.064 29.1856 227.174 29.1126C227.911 28.6216 228.469 27.875 229.259 27.4773C230.318 26.9458 231.581 27.1446 232.754 27.3353C233.923 27.526 235.271 27.6721 236.297 27.0756C235.939 28.3416 236.207 29.7699 237.001 30.8209C237.319 31.2429 237.735 31.6446 237.812 32.168C237.845 32.3953 237.812 32.6306 237.824 32.8619C237.836 33.0932 237.91 33.3407 238.101 33.4706C238.329 33.6288 238.659 33.5558 238.875 33.3813C239.091 33.2068 239.221 32.9512 239.347 32.7037C239.604 32.1883 239.865 31.673 240.121 31.1577C240.17 31.1374 240.215 31.1171 240.247 31.113C241.009 30.9223 241.771 31.4945 241.999 32.2046C242.182 32.7726 242.06 33.4138 241.734 33.9129C241.461 34.3267 241.025 34.7122 240.557 34.8908C240.439 34.9354 239.926 35.0247 239.555 34.9922C239.514 35.2316 239.437 35.7104 239.351 36.3434C240.17 35.6211 241.099 34.9841 241.714 34.0954C242.439 33.0526 242.683 31.7257 242.52 30.4719Z" fill="#121B46"/>
</svg>
