<svg width="32" height="32" viewBox="0 0 32 32" fill="none" xmlns="http://www.w3.org/2000/svg">
<path d="M16 31C24.2843 31 31 24.2843 31 16C31 7.71573 24.2843 1 16 1C7.71573 1 1 7.71573 1 16C1 24.2843 7.71573 31 16 31Z" fill="#F8D538" stroke="white" stroke-width="1.5"/>
<path fill-rule="evenodd" clip-rule="evenodd" d="M11.5218 11.8374C11.5218 14.505 13.5099 16.6748 15.954 16.6748C18.3982 16.6748 20.3863 14.505 20.3863 11.8374C20.3863 9.1698 18.3982 7 15.954 7C13.5099 7 11.5218 9.1698 11.5218 11.8374ZM12.3282 11.8373C12.3282 9.65516 13.9553 7.87939 15.9546 7.87939C17.9539 7.87939 19.5809 9.65516 19.5809 11.8373C19.5809 14.0194 17.9539 15.7951 15.9546 15.7951C13.9553 15.7951 12.3282 14.0194 12.3282 11.8373Z" fill="white"/>
<path d="M7.76664 24.7886C7.64413 25.0002 7.38759 25.0635 7.19362 24.9298C6.99966 24.7961 6.94173 24.5161 7.06423 24.3044C9.35221 20.3506 12.342 18.3506 16 18.3506C19.658 18.3506 22.6478 20.3506 24.9358 24.3044C25.0583 24.5161 25.0003 24.7961 24.8064 24.9298C24.6124 25.0635 24.3559 25.0002 24.2334 24.7886C22.0906 21.0857 19.3573 19.2573 16 19.2573C12.6427 19.2573 9.90941 21.0857 7.76664 24.7886Z" fill="white"/>
</svg>
